<svg width="134" height="57" viewBox="0 0 134 57" fill="none" xmlns="http://www.w3.org/2000/svg">
<g opacity="0.9">
<path d="M116.712 47.3661L116.882 47.2101L117.998 46.1897L118.024 46.1657H118.06H133.733L126.546 41.4663L126.505 41.4395V41.3911V38.4493V38.4101L126.534 38.3833L133.85 31.6924L133.651 31.6716C133.636 31.67 132.115 31.5172 129.68 31.5172C124.695 31.5172 117.363 32.128 110.742 35.0383L110.732 35.0423L110.722 35.0443L109.357 35.3014L109.335 35.3054L109.313 35.299L99.2247 32.2468L99.1236 32.216L99.1693 32.1216L103.9 22.3437L103.791 22.3169C100.969 21.6189 94.9929 21.5437 92.5541 21.5437C91.7643 21.5437 91.2483 21.5513 91.1638 21.5525C81.2124 21.8017 74.0884 26.9379 72.7612 27.9646L72.6637 28.0402L72.6201 27.9258C72.1918 26.8063 70.5043 22.7793 66.7768 17.9659C61.9513 11.735 55.8152 6.84564 48.5395 3.43421C48.5314 3.43101 47.2144 2.90824 44.9887 2.22507L44.9551 2.21467L44.9393 2.20987C42.1709 1.36271 39.3221 0.666746 36.4708 0.141972L36.2827 0.107178L36.3741 0.273167C36.4145 0.346763 40.4681 7.7636 44.0048 17.6771L44.0165 17.7107L44.002 17.7431C43.9631 17.8307 43.9235 17.9251 43.8823 18.0283L43.8406 18.1319L43.7468 18.0703C42.902 17.5135 35.1395 12.6234 22.8576 12.3314L22.7198 12.3282L22.7711 12.455C22.7865 12.493 24.3644 16.4204 26.1303 21.5697L26.1877 21.7369L26.0175 21.6849C23.0517 20.7782 17.0976 19.2566 10.5446 19.2562C8.26553 19.2562 6.09683 19.4458 4.09797 19.8206L4.04621 19.8314L4.0268 19.8782C3.99121 19.965 4.06238 20.0678 5.01025 21.3985C7.31806 24.6384 12.723 32.2256 14.7073 38.2493L14.7344 38.3313L14.6527 38.3617L10.8054 39.7892L10.7901 39.7948H10.7735H3.92044L4.04338 43.4338L4.04621 43.5266H3.95198H2.03683V46.4225V46.5125H1.94585H0.150391V56.8936H131.387V47.3661H116.944H116.712ZM28.1567 40.7508L20.5325 38.2925L17.7398 38.2881L17.5776 38.2877L17.6621 38.1509L19.1054 35.8206L19.1337 35.7746L19.1883 35.7778C21.7031 35.919 26.0094 36.3078 26.599 37.3277C26.7341 37.5617 26.8829 37.8333 27.0535 38.1585L27.0834 38.2209C27.102 38.2597 27.1206 38.2985 27.1396 38.3369L27.14 38.3365L27.1878 38.4161C27.599 39.2133 28.0018 40.058 28.2675 40.6268L28.3548 40.814L28.1567 40.7508ZM48.1194 44.8954H45.0489H45.0327L45.0174 44.8898L38.1461 42.3627L33.9369 42.3519L33.8014 42.3515L33.8528 42.2275L35.3652 38.5881L35.3943 38.5181L35.4687 38.5341L47.1824 41.0664L47.2362 41.078L47.2508 41.1304C47.8092 43.1183 48.0903 44.2734 48.2083 44.785L48.2338 44.895H48.1194V44.8954ZM88.71 44.8954H52.1907H51.9109H49.4304H49.3366L49.3394 44.8026L49.379 43.4162L49.3835 43.2695L49.5137 43.3398L52.0835 44.7266L52.1187 44.7458L52.1365 44.733L52.1652 44.7122C52.5279 44.4514 55.82 42.0791 59.7114 39.1489L59.7522 39.1181L59.7999 39.1369L59.9063 39.1785L72.3968 42.1643L84.665 40.6172L84.7103 40.6116L84.7418 40.644L88.7743 44.7434L88.9243 44.8962H88.71V44.8954ZM102.566 44.8954H93.1335H92.9892L93.0515 44.7666L97.4798 35.613L97.5571 35.4534L97.642 35.609L99.8855 39.7132L99.9223 39.78L99.8616 39.8268L95.4668 43.2423H101.761H101.815L101.841 43.2894L102.646 44.763L102.719 44.8958H102.566V44.8954ZM114.036 47.2589L106.421 44.899L106.407 44.895H105.346H105.223L105.259 44.7786L105.904 42.6923L105.924 42.6287H105.991H112.337H112.4L112.422 42.6867L114.149 47.1409L114.216 47.3145L114.036 47.2589Z" fill="#EC268F"/>
<path d="M133.976 46.2725L126.537 41.408V38.4661L134 31.6404L133.6 31.5988C133.477 31.5856 121.121 30.3689 110.645 34.9727L109.28 35.2299L99.1916 32.1776L103.97 22.3001L103.754 22.2465C100.133 21.351 91.4728 21.4733 91.1028 21.4793C81.0915 21.7301 73.9121 26.9307 72.6456 27.9106C71.8712 25.8867 65.8451 11.4934 48.5185 3.36904C48.4935 3.35904 47.176 2.83666 44.9559 2.15509C44.9458 2.1383 44.9381 2.1255 44.9361 2.1219L44.9066 2.1399C42.784 1.48993 39.849 0.699167 36.4283 0.0691983L36.0527 0L36.235 0.331984C36.3082 0.465178 40.3678 7.93441 43.8601 17.7227C43.8208 17.8111 43.7804 17.9067 43.7392 18.0111C43.0456 17.5543 35.1727 12.551 22.8015 12.2574L22.5257 12.251L22.6276 12.5042C22.6628 12.5918 24.2306 16.4976 25.9852 21.6149C22.4517 20.5346 12.9378 18.0771 4.02198 19.7482L3.92089 19.7694L3.88368 19.8606C3.82869 19.995 3.82869 19.995 4.87684 21.4666C7.19072 24.7148 12.5827 32.2852 14.5618 38.2933L10.7145 39.7208H3.76722L3.89298 43.4531H1.88685V46.4389H0V57H131.419V47.2925H116.885L118.001 46.2721L133.976 46.2725ZM116.349 47.2929H115.955C116.537 46.0609 121.381 36.1526 128.647 31.8124C130.82 31.7764 132.439 31.8696 133.154 31.9232L116.349 47.2929ZM0.364345 56.6404V46.7997H2.25119V43.8138H4.03816L22.6947 52.969L22.7331 52.9878H131.055V56.6408L0.364345 56.6404ZM4.33093 20.0586C6.27398 19.711 8.24332 19.5598 10.1698 19.5446C10.8354 20.7226 15.1097 28.6442 15.4805 38.2105H14.9189C12.9301 32.146 7.50169 24.526 5.17447 21.2594C4.81538 20.7554 4.49228 20.3018 4.33093 20.0586ZM44.7129 2.45828C45.7392 4.2194 55.3109 21.4937 49.8283 43.2507L49.1902 42.9063C49.6536 25.5072 38.3034 3.45583 36.7332 0.493976C39.9343 1.10035 42.6882 1.84151 44.7129 2.45828ZM103.448 22.5453L102.138 25.2544C84.6707 23.9756 77.6579 29.2114 76.6324 30.0725L74.2223 27.2363C76.9535 25.4316 83.1171 22.0401 91.1105 21.8401C91.1974 21.8385 99.7424 21.7173 103.448 22.5453ZM92.7106 50.6479L45.3041 50.6383V52.6274H22.8189L10.9296 46.7933V40.0144L14.8198 38.5709H17.4608H20.4031L29.3124 41.4436L33.5568 42.6315L38.007 42.6383L44.9244 45.1822H106.306L114.254 47.6449L114.281 47.6529H116.238V50.5567H111.652V52.6274H98.4819L98.4912 52.6006L92.7106 50.6479ZM97.4435 52.6274H45.668V50.9987H92.6216L97.4435 52.6274ZM110.562 35.3559L112.175 42.3759H106.086L109.394 35.5759L110.562 35.3559ZM51.9813 44.8222H49.3714L49.411 43.4355L51.9813 44.8222ZM60.6213 36.101L72.1882 40.4272L72.1656 41.8611L59.9367 38.9393L57.6163 38.0333L60.6213 36.101ZM65.1601 33.1828L72.2622 35.7155L72.1943 40.0444L61.0002 35.8574L65.1601 33.1828ZM96.1972 42.9887L99.9223 40.094L101.505 42.9887H96.1972ZM95.1446 43.3491H101.702L102.507 44.8226H93.0745L97.5029 35.6691L99.7464 39.7728L95.1446 43.3491ZM82.6759 37.1338L86.2001 40.1608L72.5291 41.8843L72.5518 40.4396L82.6759 37.1338ZM85.1503 40.656L85.7196 41.3264L85.0702 40.666L85.1503 40.656ZM92.673 44.8174H89.1621L85.8025 40.8636C85.885 40.8028 86.0977 40.66 86.469 40.4896L87.0533 40.416L86.9207 40.302C88.2321 39.8104 90.776 39.2633 95.1337 39.7312L92.673 44.8174ZM72.5578 40.0584L72.6266 35.6986L77.8617 32.9984L82.3564 36.8586L72.5578 40.0584ZM72.633 35.2891L72.7382 28.5982L77.5661 32.7448L72.633 35.2891ZM72.3746 28.5438L72.2679 35.3343L65.5434 32.936L72.3746 28.5438ZM59.3066 39.0801C57.3268 40.57 55.5079 41.9127 54.1726 42.8903L58.5076 38.7677L59.3066 39.0801ZM59.7082 39.2369L59.8145 39.2785L72.3334 42.2719L84.6185 40.7228L88.651 44.8222H52.1317L52.1604 44.8014C52.477 44.5738 55.8051 42.1763 59.7082 39.2369ZM112.277 42.7359L114.005 47.1901L106.389 44.8302L106.362 44.8222H105.287L105.931 42.7359H112.277ZM114.459 47.2929L112.022 34.7951C113.722 34.1279 115.456 33.6032 117.167 33.1948C115.295 36.8538 114.643 45.6658 114.537 47.2929H114.459ZM113.739 45.4986L112.577 42.5023L110.911 35.2527C111.166 35.1419 111.421 35.0335 111.678 34.9295L113.739 45.4986ZM95.3003 39.3865C90.5726 38.8625 87.9195 39.4921 86.6028 40.0292L81.0147 35.2299L80.7478 34.9159C81.9168 34.3343 90.0728 30.5437 98.1718 33.4508L95.3003 39.3865ZM47.104 41.1716C47.6681 43.1807 47.9492 44.339 48.0604 44.8222H44.9899L38.1029 42.2895L33.8775 42.2787L35.3899 38.6393L47.104 41.1716ZM35.5306 38.3013L43.1629 19.9346C42.6429 22.3505 42.467 26.2587 44.2301 31.7336C45.5124 35.715 46.3959 38.6725 46.9932 40.7796L35.5306 38.3013ZM30.7868 41.482L29.8001 41.206L30.3161 37.0962C30.6077 38.7101 30.7912 40.1996 30.824 41.4824H30.7868V41.482ZM29.4455 41.1064L29.4184 41.0988L28.5979 40.8344C28.2938 40.1772 27.7523 39.0297 27.2286 38.0341C25.4668 34.3311 26.4514 26.3127 26.7858 23.9988C28.0605 27.8786 29.327 32.1772 30.0941 35.943L29.4455 41.1064ZM26.4118 36.847C25.1813 36.0042 21.6935 35.6667 19.342 35.5331L26.3936 24.1476C26.0632 26.4511 25.309 32.8396 26.4118 36.847ZM26.4611 37.3898C26.6059 37.6402 26.7592 37.9225 26.914 38.2173C26.9565 38.3049 26.9973 38.3945 27.0426 38.4773L27.0479 38.4745C27.449 39.2525 27.8465 40.0836 28.126 40.682L20.4884 38.2193L17.6808 38.2149L19.124 35.8846C21.9555 36.0438 25.9273 36.4658 26.4611 37.3898ZM43.4634 18.2643L33.5042 42.2307L32.8548 41.9995C36.9496 27.6158 38.8684 17.6167 39.1575 16.0632C41.5567 17.0804 43.0448 17.9947 43.4634 18.2643ZM32.5111 41.8767L32.0202 41.7019L32.0432 41.7068C34.3001 30.7049 29.5393 15.626 28.7119 13.1386C32.8908 13.7761 36.3111 14.8865 38.8138 15.92C38.578 17.1984 36.6673 27.2731 32.5111 41.8767ZM15.8449 38.2109C15.4894 28.9494 11.5063 21.2162 10.5855 19.5454C14.1178 19.5538 17.4863 20.0102 20.2624 20.5594C20.2328 21.8681 19.8839 32.1704 16.4749 38.2109H15.8449ZM112.017 50.9171H116.603V49.8164H131.056V52.6274H112.017L112.017 50.9171ZM114.902 47.2929C115.017 45.605 115.723 36.4126 117.642 33.0844C121.445 32.2196 125.096 31.9092 127.942 31.828C120.424 36.6594 115.612 47.1665 115.563 47.2745L115.603 47.2925H114.902V47.2929ZM105.682 42.3755H105.662L104.913 44.8006H102.909L97.697 35.2663L99.0323 32.5064L109.014 35.5267L105.682 42.3755ZM98.3303 33.124C89.8852 30.0753 81.3822 34.1895 80.508 34.6331L76.8661 30.3477C77.8039 29.5533 84.6509 24.3684 101.968 25.6051L98.3303 33.124ZM73.9194 27.4391L79.2548 33.7179L72.8461 28.2138C73.0398 28.0626 73.4042 27.7894 73.9194 27.4391ZM64.1479 33.404L71.574 26.3415C72.0014 27.2539 72.2481 27.8822 72.3419 28.135L64.1479 33.404ZM71.4102 25.9975L62.5255 34.4467L56.8258 38.1117L58.1347 38.6225L52.0237 44.4342L51.4681 44.1346C63.0221 29.1978 61.885 15.5236 61.4741 12.601C66.964 17.7975 70.0074 23.0885 71.4102 25.9975ZM61.0426 12.1998C61.2792 13.5121 63.5203 27.9938 51.1446 43.9602L50.1591 43.4287C55.4711 22.4981 46.9156 5.65932 45.2196 2.61467C47.1946 3.23264 48.3535 3.69222 48.3726 3.69982C53.5668 6.1353 57.7304 9.13915 61.0426 12.1998ZM48.8226 43.0059L48.8194 43.1163L49.0527 43.2423L49.0074 44.8222H48.4336C48.2355 43.9518 47.3046 40.0952 44.577 31.6245C42.3234 24.626 43.3267 20.1758 44.0485 18.2571C46.7514 25.9443 49.0596 34.9823 48.8226 43.0059ZM28.3079 13.077C28.9153 14.8717 33.9737 30.3665 31.6959 41.5868L31.1867 41.4056C30.93 32.7476 23.9932 14.9645 23.0667 12.6262C24.9208 12.6806 26.6706 12.8418 28.3079 13.077ZM26.5327 23.2341L17.2566 38.2105H16.8878C20.1964 32.17 20.5855 22.1869 20.6251 20.6318C23.0457 21.1262 24.9811 21.6781 26.1299 22.0369C26.263 22.4297 26.3976 22.8293 26.5327 23.2341ZM10.5653 40.082V46.6145L4.25935 43.5203L4.14329 40.082H10.5653ZM131.055 49.456H116.602V47.6533H131.055V49.456ZM132.765 45.9125H118.395L126.173 38.7993V41.6016L132.765 45.9125Z" fill="white"/>
</g>
</svg>
