<svg width="92" height="80" viewBox="0 0 92 80" fill="none" xmlns="http://www.w3.org/2000/svg">
<path d="M76.4601 54.6934H15.2266V73.6939H76.4601V54.6934Z" fill="#FFD1E9"/>
<path d="M49.9045 61.532H41.7832V73.6939H49.9045V61.532Z" fill="#FF62B5"/>
<path d="M25.4956 18.3621C30.5375 18.3621 45.8437 18.3621 45.8437 18.3621C45.8437 18.3621 61.1499 18.3621 66.1918 18.3621C71.2337 18.3621 75.7542 14.9116 75.7542 14.9116C75.7542 14.9116 72.7987 23.9259 66.0181 23.9259C59.2376 23.9259 45.8442 23.9259 45.8442 23.9259C45.8442 23.9259 32.4503 23.9259 25.6697 23.9259C18.8891 23.9259 15.9336 14.9116 15.9336 14.9116C15.9336 14.9116 20.4532 18.3621 25.4956 18.3621Z" fill="#EC268F"/>
<path d="M45.8434 18.3622C45.8434 18.3622 34.9387 18.3622 28.5059 18.3622C29.4442 20.9061 31.0639 23.9259 33.4712 23.9259C37.6294 23.9259 45.8434 23.9259 45.8434 23.9259C45.8434 23.9259 54.0573 23.9259 58.2155 23.9259C60.6223 23.9259 62.242 20.9065 63.1808 18.3622C56.747 18.3622 45.8434 18.3622 45.8434 18.3622Z" fill="#EC268F"/>
<path d="M69.1409 38.6727H22.5469V48.2684H69.1409V38.6727Z" fill="#FFD1E9"/>
<path d="M76.4601 54.6934H15.2266V56.7486H76.4601V54.6934Z" fill="#FF62B5"/>
<path d="M23.7733 54.6934H20.3203V69.6752H23.7733V54.6934Z" fill="#EC268F"/>
<path d="M24.6745 69.6753H19.4199V73.694H24.6745V69.6753Z" fill="#EC268F"/>
<path d="M90.5256 76.3676H1.16211V80H90.5256V76.3676Z" fill="#FF62B5"/>
<path d="M63.7415 23.9254H27.9443V33.1089H63.7415V23.9254Z" fill="#FFD1E9"/>
<path d="M65.6677 23.9254H26.0215V25.3339H65.6677V23.9254Z" fill="#FF62B5"/>
<path d="M65.6677 23.9254H26.0215V24.6297H65.6677V23.9254Z" fill="#FF62B5"/>
<path d="M67.9132 69.675H71.3662V54.6932H67.9132V69.675Z" fill="#EC268F"/>
<path d="M67.014 73.694H72.2686V69.6753H67.014V73.694Z" fill="#EC268F"/>
<path d="M32.8866 54.6935H29.4336V69.6753H32.8866V54.6935Z" fill="#EC268F"/>
<path d="M33.7868 69.6753H28.5322V73.694H33.7868V69.6753Z" fill="#EC268F"/>
<path d="M58.801 69.6752H62.2539V54.6933H58.801V69.6752Z" fill="#EC268F"/>
<path d="M57.8997 73.694H63.1543V69.6753H57.8997V73.694Z" fill="#EC268F"/>
<path d="M45.8442 0L25.4961 18.3622H66.1923L45.8442 0Z" fill="#EC268F"/>
<path d="M45.8444 4.65564L30.6553 18.3621H61.0335L45.8444 4.65564Z" fill="#FF62B5"/>
<path d="M78.51 54.6935H13.1797V56.7487H78.51V54.6935Z" fill="#FF62B5"/>
<path d="M78.51 54.6935H13.1797V55.385H78.51V54.6935Z" fill="#FF62B5"/>
<path d="M64.4301 42.4783H63.9424V48.3142H64.4301V42.4783Z" fill="#EC268F"/>
<path d="M52.2026 42.4783H51.7148V48.3142H52.2026V42.4783Z" fill="#EC268F"/>
<path d="M39.974 42.4783H39.4863V48.3142H39.974V42.4783Z" fill="#EC268F"/>
<path d="M27.7455 42.4783H27.2578V48.3142H27.7455V42.4783Z" fill="#EC268F"/>
<path d="M69.1409 42.2345H22.5469V42.7222H69.1409V42.2345Z" fill="#EC268F"/>
<path d="M60.1791 27.7158H59.6914V33.1089H60.1791V27.7158Z" fill="#EC268F"/>
<path d="M50.7846 27.7158H50.2969V33.1089H50.7846V27.7158Z" fill="#EC268F"/>
<path d="M41.3891 27.7158H40.9014V33.1089H41.3891V27.7158Z" fill="#EC268F"/>
<path d="M31.9945 27.7158H31.5068V33.1089H31.9945V27.7158Z" fill="#EC268F"/>
<path d="M63.741 27.4719H27.9443V27.9596H63.741V27.4719Z" fill="#EC268F"/>
<path d="M22.9026 30.6207C22.5724 30.6207 22.3037 30.3519 22.3037 30.0218C22.3037 29.6916 22.5724 29.4229 22.9026 29.4229C23.2333 29.4229 23.502 29.6916 23.502 30.0218C23.5015 30.3524 23.2328 30.6207 22.9026 30.6207ZM22.9026 29.9106C22.8416 29.9106 22.7914 29.9603 22.7914 30.0218C22.7914 30.1442 23.0133 30.1432 23.0138 30.0218C23.0138 29.9608 22.964 29.9106 22.9026 29.9106Z" fill="#FF62B5"/>
<path d="M69.0293 33.9863H22.6582V30.1334H69.0293V33.9863ZM23.1459 33.4986H68.5416V30.6211H23.1459V33.4986Z" fill="#FF62B5"/>
<path d="M68.7859 30.6207C68.4557 30.6207 68.1875 30.3519 68.1875 30.0218C68.1875 29.6916 68.4562 29.4229 68.7859 29.4229C69.1166 29.4229 69.3853 29.6916 69.3853 30.0218C69.3848 30.3524 69.1161 30.6207 68.7859 30.6207ZM68.7859 29.9106C68.7249 29.9106 68.6752 29.9603 68.6752 30.0218C68.6747 30.1442 68.8971 30.1432 68.8976 30.0218C68.8971 29.9608 68.8474 29.9106 68.7859 29.9106Z" fill="#FF62B5"/>
<path d="M71.2273 33.1095C66.1854 33.1095 45.8436 33.1095 45.8436 33.1095C45.8436 33.1095 25.5019 33.1095 20.4599 33.1095C15.418 33.1095 10.8975 29.6589 10.8975 29.6589C10.8975 29.6589 13.853 38.6732 20.6336 38.6732C27.4142 38.6732 45.8436 38.6732 45.8436 38.6732C45.8436 38.6732 64.2731 38.6732 71.0537 38.6732C77.8342 38.6732 80.7897 29.6589 80.7897 29.6589C80.7897 29.6589 76.2692 33.1095 71.2273 33.1095Z" fill="#EC268F"/>
<path d="M66.66 33.1095H61.7083C54.3371 33.1095 45.8431 33.1095 45.8431 33.1095C45.8431 33.1095 37.3493 33.1095 29.9781 33.1095H25.0264C25.9828 35.6534 27.6336 38.6733 30.0863 38.6733C37.5819 38.6733 45.8427 38.6733 45.8427 38.6733C45.8427 38.6733 54.1035 38.6733 61.599 38.6733C64.0527 38.6728 65.7036 35.6534 66.66 33.1095Z" fill="#EC268F"/>
<path d="M71.0534 38.6727H20.6338V40.1549H71.0534V38.6727Z" fill="#FF62B5"/>
<path d="M71.0534 38.6727H20.6338V39.414H71.0534V38.6727Z" fill="#FF62B5"/>
<path d="M10.9646 48.3142C16.7459 48.3142 45.8435 48.3142 45.8435 48.3142C45.8435 48.3142 74.941 48.3142 80.7223 48.3142C86.5036 48.3142 91.6864 44.3574 91.6864 44.3574C91.6864 44.3574 88.2974 54.6934 80.5229 54.6934C72.7483 54.6934 45.8435 54.6934 45.8435 54.6934C45.8435 54.6934 18.9386 54.6934 11.1636 54.6934C3.38908 54.6934 0 44.3574 0 44.3574C0 44.3574 5.18385 48.3142 10.9646 48.3142Z" fill="#EC268F"/>
<path d="M18.0247 45.6274C17.6945 45.6274 17.4258 45.3586 17.4258 45.0285C17.4258 44.6983 17.6945 44.4296 18.0247 44.4296C18.3553 44.4296 18.6236 44.6983 18.6236 45.0285C18.6236 45.3586 18.3549 45.6274 18.0247 45.6274ZM18.0247 44.9173C17.9637 44.9173 17.9135 44.967 17.9135 45.0285C17.9135 45.1509 18.1359 45.1499 18.1359 45.0285C18.1359 44.967 18.0861 44.9173 18.0247 44.9173Z" fill="#FF62B5"/>
<path d="M73.9065 48.9925H17.7812V45.1396H73.9065V48.9925ZM18.269 48.5048H73.4188V45.6274H18.269V48.5048Z" fill="#FF62B5"/>
<path d="M73.6629 45.6274C73.3327 45.6274 73.0645 45.3586 73.0645 45.0285C73.0645 44.6983 73.3332 44.4296 73.6629 44.4296C73.9935 44.4296 74.2623 44.6983 74.2623 45.0285C74.2618 45.3586 73.993 45.6274 73.6629 45.6274ZM73.6629 44.9173C73.6019 44.9173 73.5522 44.967 73.5522 45.0285C73.5517 45.1509 73.7741 45.1499 73.7746 45.0285C73.7741 44.967 73.7243 44.9173 73.6629 44.9173Z" fill="#FF62B5"/>
<path d="M74.5267 48.3141H68.6001C58.3553 48.3141 45.8432 48.3141 45.8432 48.3141C45.8432 48.3141 33.331 48.3141 23.0863 48.3141H17.1592C18.3038 51.2311 20.2795 54.6933 23.216 54.6933C33.5773 54.6933 45.8427 54.6933 45.8427 54.6933C45.8427 54.6933 58.108 54.6933 68.4693 54.6933C71.4063 54.6933 73.382 51.2311 74.5267 48.3141Z" fill="#EC268F"/>
<path d="M83.3959 73.694H8.29004V76.3671H83.3959V73.694Z" fill="#FF62B5"/>
<path d="M25.4961 18.3622H66.1923L65.1823 17.4507H26.5056L25.4961 18.3622Z" fill="#FF62B5"/>
</svg>
