<svg width="47" height="47" viewBox="0 0 47 47" fill="none" xmlns="http://www.w3.org/2000/svg">
<path d="M23.0525 0C10.321 0 0 10.321 0 23.0525C0 33.0853 6.41146 41.6169 15.3594 44.7851V27.0225H12.0953V21.1903H15.3594V17.4161C15.3594 14.7176 16.641 10.491 22.2838 10.491L27.3676 10.5126V16.1735H23.6792C23.0741 16.1735 22.2233 16.476 22.2233 17.7634V21.196H27.4519L26.8525 27.0225H22.2233V46.084C22.4992 46.0941 22.7751 46.1049 23.0532 46.1049C35.7846 46.1049 46.1056 35.7839 46.1056 23.0525C46.1049 10.321 35.7839 0 23.0525 0Z" fill="#294DA5"/>
</svg>
