<svg width="52" height="80" viewBox="0 0 52 80" fill="none" xmlns="http://www.w3.org/2000/svg">
<g opacity="0.9">
<path d="M10.0198 59.4873H9.29297V59.5723H10.0198V59.4873Z" fill="#EC268F"/>
<path d="M5.51953 67.5329V67.2979H6.43361C6.40828 68.0053 6.29705 68.6134 6.27392 68.7348L6.23868 68.843L5.51953 67.5318V67.5329Z" fill="#EC268F"/>
<path d="M7.06641 70.4451L7.53336 68.9342C7.72168 68.368 7.92322 67.8317 8.15008 67.2986H9.29654V65.067C9.82516 64.2194 10.2833 63.704 10.5333 63.4502C10.9287 64.7227 10.1236 67.7224 10.1159 67.7533L7.06641 77.3893V70.444V70.4451Z" fill="#EC268F"/>
<path d="M41.043 59.5727V59.4877H42.3414V35.8564H44.1431L44.1442 36.5186L43.0815 43.3899V53.0844L42.6002 55.3744L42.5991 59.5727H41.043Z" fill="#EC268F"/>
<path d="M29.1292 79.9292V72.8327L25.9773 71.9476V79.9292H24.8331V71.9454L21.7318 72.8327V79.9281H16.9687L17.0116 79.3807L16.8465 79.3056C16.4214 79.1125 16.1813 78.6589 16.1328 77.957L19.9719 63.0566C21.5402 57.2879 24.7053 54.6778 25.4817 54.1094C26.257 54.6755 29.4211 57.279 30.9904 63.0555L34.7436 77.6248C34.758 78.5121 34.4937 79.0761 33.9595 79.3012L33.7855 79.3751L33.8329 79.927H29.1303L29.1292 79.9292Z" fill="#EC268F"/>
<path d="M44.6923 68.749C44.6802 68.6883 44.5568 68.0504 44.5293 67.2988H46.5248V67.5703L45.1251 70.0778C44.9533 69.5503 44.6989 68.7689 44.6923 68.749Z" fill="#EC268F"/>
<path d="M8.41016 36.4482V36.0244H8.94208V39.9424L8.41016 36.4482Z" fill="#EC268F"/>
<path d="M38.4315 79.9297V74.7934C38.4315 74.3685 38.3434 74.0881 38.154 73.9094C37.9536 73.7206 37.6882 73.6963 37.4558 73.6963C37.3875 73.6963 37.3192 73.6986 37.2487 73.7008C37.1794 73.703 37.1056 73.7041 37.0329 73.7041C36.9602 73.7041 36.8864 73.7041 36.8159 73.7008C36.7466 73.6986 36.6772 73.6963 36.6089 73.6963C36.3754 73.6963 36.11 73.7217 35.9107 73.9094C35.8776 73.9403 35.8479 73.9756 35.8204 74.0142C35.0979 71.1017 34.3446 68.0622 33.9338 66.4035C33.6552 65.281 33.6233 65.1486 33.6167 65.1276L33.62 65.1365C33.6079 65.0901 32.4537 60.5508 33.9581 59.0918C34.0858 59.1415 34.294 59.2353 34.5583 59.4008V59.4869H34.6893C35.6375 60.1237 36.9536 61.4657 37.8952 64.2513L42.6704 78.7753L42.6429 78.8791C42.5702 79.1605 42.426 79.3658 42.2134 79.4905L42.0857 79.5655V79.9297H38.4315Z" fill="#EC268F"/>
<path d="M44.8736 79.5138C44.7602 79.4133 44.5774 79.2235 44.3769 78.9134L40.8462 67.7544C40.6094 66.8947 40.0973 64.5229 40.4288 63.4502C40.855 63.8784 41.7173 64.8949 42.5961 66.8108V67.2986H42.812C43.0389 67.8317 43.2404 68.3669 43.4287 68.9331L44.9705 73.9304V74.2516H44.8736V79.5138Z" fill="#EC268F"/>
<path d="M8.84146 79.9295V79.5664L8.71481 79.4913C8.50446 79.3666 8.36129 79.1614 8.28971 78.8799L8.27539 78.8225L13.066 64.2522C14.3876 60.3442 16.4591 59.3045 17.0032 59.0938C18.4965 60.5439 17.3523 65.0932 17.3402 65.1395C17.3402 65.1406 16.1717 69.8576 15.0913 74.2104C15.0462 74.0879 14.9823 73.9886 14.8986 73.9102C14.6982 73.7215 14.4327 73.6972 14.2004 73.6972C14.1332 73.6972 14.0638 73.6994 13.9933 73.7016C13.9239 73.7038 13.8502 73.7049 13.7775 73.7049C13.7048 73.7049 13.631 73.7049 13.5605 73.7016C13.4911 73.6994 13.4218 73.6972 13.3546 73.6972C13.1211 73.6972 12.8557 73.7226 12.6564 73.9102C12.4669 74.089 12.3788 74.3693 12.3788 74.7942V79.9306H8.84146V79.9295Z" fill="#EC268F"/>
<path d="M47.4629 67.5329V67.2979H50.0388V67.5704L48.7503 69.8793L47.4629 67.5329Z" fill="#EC268F"/>
<path d="M5.75195 36.3908V36.0244H7.47328V36.5188L6.61647 42.0636L5.75195 36.3908Z" fill="#EC268F"/>
<path d="M45.0801 36.448V35.8564H46.6406L46.6417 36.5186L45.8609 41.57L45.0801 36.448Z" fill="#EC268F"/>
<path d="M1.9668 67.5329V67.2979H4.58018V67.5704L3.27294 69.9124L1.9668 67.5329Z" fill="#EC268F"/>
<path d="M27.788 48.7554V47.5965C27.788 47.3228 27.5601 47.0999 27.2803 47.0999C27.0006 47.0999 26.7715 47.3228 26.7715 47.5965V48.7554H26.3663V47.5965C26.3663 47.3228 26.1383 47.0999 25.8575 47.0999C25.5766 47.0999 25.3498 47.3228 25.3498 47.5965V48.7554H24.9445V47.5965C24.9445 47.3228 24.7165 47.0999 24.4368 47.0999C24.1571 47.0999 23.9291 47.3228 23.9291 47.5965V48.7554H23.5238V47.5965C23.5238 47.3228 23.2959 47.0999 23.0161 47.0999C22.7364 47.0999 22.5084 47.3228 22.5084 47.5965V48.7554H22.0547V42.8045L23.7386 40.073H22.0547V39.8269L25.2683 34.9189L28.3299 39.5951V40.0719H26.8475L28.3299 42.5352V48.7543H27.7902L27.788 48.7554ZM26.7539 45.9477C26.4632 45.9477 26.2264 46.1783 26.2264 46.4631C26.2264 46.7478 26.4632 46.9785 26.7539 46.9785C27.0447 46.9785 27.2814 46.7478 27.2814 46.4631C27.2814 46.1783 27.0447 45.9477 26.7539 45.9477ZM23.6218 45.9477C23.3311 45.9477 23.0943 46.1783 23.0943 46.4631C23.0943 46.7478 23.3311 46.9785 23.6218 46.9785C23.9126 46.9785 24.1494 46.7478 24.1494 46.4631C24.1494 46.1783 23.9126 45.9477 23.6218 45.9477ZM25.2264 41.6677C24.4137 41.6677 23.7518 42.7681 23.7518 44.12C23.7518 45.472 24.4137 46.5723 25.2264 46.5723C26.0392 46.5723 26.7011 45.472 26.7011 44.12C26.7011 42.7681 26.0392 41.6677 25.2264 41.6677Z" fill="#EC268F"/>
<path d="M28.3271 35.1481C27.6828 34.1206 26.4857 33.4761 25.1597 33.4761C23.8338 33.4761 22.7105 34.0842 22.0508 35.0543V31.7588H28.2852V33.2299H28.326V35.147L28.3271 35.1481Z" fill="#EC268F"/>
<path d="M9.46509 58.9721V29.209C9.46509 28.1837 9.49593 27.1728 9.54769 26.1961V26.2568H10.2426V25.2822H9.60386C9.61267 25.1498 9.62258 25.0174 9.63139 24.8871H10.2426V23.9126H9.71068C9.76465 23.299 9.82522 22.7085 9.88909 22.1468H10.5455V21.1723H10.0069C10.2679 19.1195 10.5543 17.5622 10.6908 16.8614L10.7096 16.7632L10.6567 16.6782C10.3142 16.1319 10.519 15.2722 10.5201 15.2633L11.6335 10.0839V8.91847C11.5818 8.14151 11.8857 6.74319 12.1501 5.70466L12.2029 5.49827L12.0069 5.40888C11.5499 5.20029 11.2536 4.75221 11.2536 4.26771C11.2536 3.5702 11.8395 3.00293 12.5608 3.00293C13.2822 3.00293 13.8681 3.5702 13.8681 4.26771C13.8681 4.73786 13.5961 5.16608 13.1566 5.3857L12.9705 5.47841L13.0212 5.67706C13.3989 7.15705 13.585 8.30816 13.5443 8.91958V10.0674L14.6577 15.2644C14.661 15.2766 14.8637 16.1308 14.5212 16.6782L14.4683 16.7643L14.487 16.8625C14.6015 17.4463 14.8273 18.667 15.0542 20.2938C15.0266 20.5818 15.0002 20.8754 14.9749 21.1734H14.7084V22.1479H14.8989C14.8901 22.2792 14.8813 22.4105 14.8725 22.543H14.7073V23.5175H14.8185C14.7745 24.4413 14.7524 25.3451 14.7524 26.2049V36.8782C14.5245 36.9069 14.3482 37.0979 14.3482 37.3285V44.4537H14.7524V54.8644H13.7723V56.3355H12.3934V57.8806H10.0179V58.9732H9.46289L9.46509 58.9721ZM10.2239 38.9399C10.1567 38.9465 10.0928 38.9663 10.0323 39.0017C9.88689 39.0855 9.79989 39.2301 9.79989 39.3879V46.5131H10.7283V39.3879C10.7283 39.1992 10.6104 39.0337 10.4287 38.9663C10.3715 38.9454 10.3175 38.9343 10.2635 38.9343C10.2459 38.9343 10.2316 38.9377 10.2228 38.9399H10.2239ZM11.7811 38.2479C11.5256 38.2479 11.3175 38.4509 11.3175 38.7015V45.8266H12.2459V38.7015C12.2459 38.4509 12.0377 38.2479 11.7822 38.2479H11.7811ZM13.2976 37.5603C13.0421 37.5603 12.834 37.7634 12.834 38.0139V45.139H13.7624V38.0139C13.7624 37.7634 13.5542 37.5603 13.2987 37.5603H13.2976ZM13.6467 35.8497H14.3405V34.8751H13.6467V35.8497ZM12.28 35.8497H12.9749V34.8751H12.28V35.8497ZM10.9144 35.8497H11.6082V34.8751H10.9144V35.8497ZM9.54769 35.8497H10.2426V34.8751H9.54769V35.8497ZM13.6467 34.4789H14.3405V33.5044H13.6467V34.4789ZM12.28 34.4789H12.9749V33.5044H12.28V34.4789ZM10.9144 34.4789H11.6082V33.5044H10.9144V34.4789ZM9.54769 34.4789H10.2426V33.5044H9.54769V34.4789ZM13.6467 33.1093H14.3405V32.1348H13.6467V33.1093ZM12.28 33.1093H12.9749V32.1348H12.28V33.1093ZM10.9144 33.1093H11.6082V32.1348H10.9144V33.1093ZM9.54769 33.1093H10.2426V32.1348H9.54769V33.1093ZM13.6467 31.7386H14.3405V30.764H13.6467V31.7386ZM12.28 31.7386H12.9749V30.764H12.28V31.7386ZM10.9144 31.7386H11.6082V30.764H10.9144V31.7386ZM9.54769 31.7386H10.2426V30.764H9.54769V31.7386ZM13.6467 30.3678H14.3405V29.3933H13.6467V30.3678ZM12.28 30.3678H12.9749V29.3933H12.28V30.3678ZM10.9144 30.3678H11.6082V29.3933H10.9144V30.3678ZM9.54769 30.3678H10.2426V29.3933H9.54769V30.3678ZM13.6467 28.9971H14.3405V28.0226H13.6467V28.9971ZM12.28 28.9971H12.9749V28.0226H12.28V28.9971ZM10.9144 28.9971H11.6082V28.0226H10.9144V28.9971ZM9.54769 28.9971H10.2426V28.0226H9.54769V28.9971ZM13.6467 27.6275H14.3405V26.653H13.6467V27.6275ZM12.28 27.6275H12.9749V26.653H12.28V27.6275ZM10.9144 27.6275H11.6082V26.653H10.9144V27.6275ZM9.54769 27.6275H10.2426V26.653H9.54769V27.6275ZM13.6467 26.2568H14.3405V25.2822H13.6467V26.2568ZM12.28 26.2568H12.9749V25.2822H12.28V26.2568ZM10.9144 26.2568H11.6082V25.2822H10.9144V26.2568ZM13.6467 24.886H14.3405V23.9115H13.6467V24.886ZM12.28 24.886H12.9749V23.9115H12.28V24.886ZM10.9144 24.886H11.6082V23.9115H10.9144V24.886ZM13.6467 23.5164H14.3405V22.5419H13.6467V23.5164ZM12.28 23.5164H12.9749V22.5419H12.28V23.5164ZM10.9144 23.5164H11.6082V22.5419H10.9144V23.5164ZM9.85055 23.5164H10.5444V22.5419H9.85055V23.5164ZM13.6467 22.1457H14.3405V21.1712H13.6467V22.1457ZM12.28 22.1457H12.9749V21.1712H12.28V22.1457ZM10.9144 22.1457H11.6082V21.1712H10.9144V22.1457ZM13.6467 20.7749H14.3405V19.8004H13.6467V20.7749ZM12.28 20.7749H12.9749V19.8004H12.28V20.7749ZM10.9144 20.7749H11.6082V19.8004H10.9144V20.7749ZM13.6467 19.3645H14.3405V16.4244H13.6467V19.3645ZM12.28 19.3645H12.9749V16.4244H12.28V19.3645ZM10.9144 19.3645H11.6082V16.4244H10.9144V19.3645Z" fill="#EC268F"/>
<path d="M15.2773 54.8634V26.1465C15.2773 25.8948 15.2806 25.6443 15.284 25.3938C15.2873 25.1874 15.2917 24.9832 15.2972 24.7791C15.3038 24.5263 15.3126 24.2758 15.3225 24.0264C15.3302 23.82 15.3401 23.6147 15.35 23.4116C15.3533 23.341 15.3566 23.2704 15.361 23.2008V23.2527H16.0549V22.2782H15.4161C15.4249 22.1458 15.4348 22.0133 15.4436 21.8831H16.0538V20.9086H15.5229C15.5417 20.7022 15.5604 20.4969 15.5802 20.2961C15.6187 19.8998 15.6595 19.5147 15.7024 19.1427H16.3588V18.1682H15.8203C16.0835 16.1022 16.3698 14.5405 16.5042 13.8574L16.5229 13.7592L16.47 13.6742C16.1309 13.1312 16.3258 12.2946 16.3346 12.2593L17.448 7.07989V5.91554C17.3962 5.13858 17.7002 3.74026 17.9645 2.70173L18.0174 2.49534L17.8213 2.40595C17.3643 2.19736 17.0681 1.74928 17.0681 1.26478C17.0681 0.567274 17.6539 0 18.3753 0C19.0966 0 19.6825 0.567274 19.6825 1.26478C19.6825 1.73493 19.4105 2.16315 18.9722 2.38277L18.7861 2.47548L18.8367 2.67413C19.1044 3.72149 19.4116 5.13306 19.3599 5.91665V7.06334L20.4733 12.2604C20.4766 12.2725 20.6803 13.1257 20.3367 13.6742L20.2838 13.7592L20.3026 13.8574C20.4424 14.5681 20.7266 16.121 20.9865 18.1693H20.5239V19.1438H21.1043C21.1186 19.2741 21.134 19.4065 21.1484 19.539H20.5239V20.5135H21.2188V20.221C21.2409 20.4473 21.2629 20.6757 21.2827 20.9086H20.8268V21.8831H21.362C21.3719 22.0155 21.3807 22.1469 21.3895 22.2782H20.8268V23.2527H21.4479C21.4545 23.3852 21.4611 23.5165 21.4677 23.6478H20.8268V24.6223H21.5052C21.5096 24.7548 21.5129 24.8861 21.5151 25.0175H20.8268V25.992H21.5217V25.3364C21.5261 25.6289 21.5294 25.918 21.5294 26.2039V48.7558H21.4479L17.8379 51.9144V52.8028H16.3819V53.9804H15.3093V54.8634H15.2795H15.2773ZM16.0769 35.9292C16.0262 35.9292 15.9833 35.9424 15.948 35.9524C15.8643 35.9767 15.7972 36.0153 15.7465 36.0649C15.6606 36.151 15.6132 36.2636 15.6132 36.3828V43.5079H16.5416V36.3828C16.5416 36.1599 16.3742 35.9733 16.1441 35.9402C16.1231 35.9347 16.1033 35.9292 16.078 35.9292H16.0769ZM17.5934 35.2416C17.3379 35.2416 17.1297 35.4447 17.1297 35.6952V42.8204H18.0581V35.6952C18.0581 35.4447 17.85 35.2416 17.5945 35.2416H17.5934ZM19.1099 34.5552C18.8544 34.5552 18.6462 34.7582 18.6462 35.0088V42.1339H19.5746V35.0088C19.5746 34.7582 19.3665 34.5552 19.111 34.5552H19.1099ZM20.6263 33.8687C20.3708 33.8687 20.1627 34.0718 20.1627 34.3223V41.4474H21.0911V34.3223C21.0911 34.0718 20.883 33.8687 20.6275 33.8687H20.6263ZM20.8257 32.8445H21.5206V31.87H20.8257V32.8445ZM19.4601 32.8445H20.1539V31.87H19.4601V32.8445ZM18.0934 32.8445H18.7872V31.87H18.0934V32.8445ZM16.7267 32.8445H17.4205V31.87H16.7267V32.8445ZM15.361 32.8445H16.0549V31.87H15.361V32.8445ZM20.8257 31.4738H21.5206V30.4993H20.8257V31.4738ZM19.4601 31.4738H20.1539V30.4993H19.4601V31.4738ZM18.0934 31.4738H18.7872V30.4993H18.0934V31.4738ZM16.7267 31.4738H17.4205V30.4993H16.7267V31.4738ZM15.361 31.4738H16.0549V30.4993H15.361V31.4738ZM20.8257 30.1042H21.5206V29.1296H20.8257V30.1042ZM19.4601 30.1042H20.1539V29.1296H19.4601V30.1042ZM18.0934 30.1042H18.7872V29.1296H18.0934V30.1042ZM16.7267 30.1042H17.4205V29.1296H16.7267V30.1042ZM15.361 30.1042H16.0549V29.1296H15.361V30.1042ZM20.8257 28.7334H21.5206V27.7589H20.8257V28.7334ZM19.4601 28.7334H20.1539V27.7589H19.4601V28.7334ZM18.0934 28.7334H18.7872V27.7589H18.0934V28.7334ZM16.7267 28.7334H17.4205V27.7589H16.7267V28.7334ZM15.361 28.7334H16.0549V27.7589H15.361V28.7334ZM20.8257 27.3627H21.5206V26.3882H20.8257V27.3627ZM19.4601 27.3627H20.1539V26.3882H19.4601V27.3627ZM18.0934 27.3627H18.7872V26.3882H18.0934V27.3627ZM16.7267 27.3627H17.4205V26.3882H16.7267V27.3627ZM15.361 27.3627H16.0505L16.0549 27.2523V26.3882H15.361V27.3627ZM19.4601 25.992H20.1539V25.0175H19.4601V25.992ZM18.0934 25.992H18.7872V25.0175H18.0934V25.992ZM16.7267 25.992H17.4205V25.0175H16.7267V25.992ZM15.361 25.992H16.0549V25.0175H15.361V25.992ZM19.4601 24.6223H20.1539V23.6478H19.4601V24.6223ZM18.0934 24.6223H18.7872V23.6478H18.0934V24.6223ZM16.7267 24.6223H17.4205V23.6478H16.7267V24.6223ZM15.361 24.6223H16.0549V23.6478H15.361V24.6223ZM19.4601 23.2516H20.1539V22.2771H19.4601V23.2516ZM18.0934 23.2516H18.7872V22.2771H18.0934V23.2516ZM16.7267 23.2516H17.4205V22.2771H16.7267V23.2516ZM19.4601 21.8809H20.1539V20.9064H19.4601V21.8809ZM18.0934 21.8809H18.7872V20.9064H18.0934V21.8809ZM16.7267 21.8809H17.4205V20.9064H16.7267V21.8809ZM19.4601 20.5102H20.1539V19.5356H19.4601V20.5102ZM18.0934 20.5102H18.7872V19.5356H18.0934V20.5102ZM16.7267 20.5102H17.4205V19.5356H16.7267V20.5102ZM15.6639 20.5102H16.3588V19.5356H15.6639V20.5102ZM19.4601 19.1405H20.1539V18.166H19.4601V19.1405ZM18.0934 19.1405H18.7872V18.166H18.0934V19.1405ZM16.7267 19.1405H17.4205V18.166H16.7267V19.1405ZM19.4601 17.7698H20.1539V16.7953H19.4601V17.7698ZM18.0934 17.7698H18.7872V16.7953H18.0934V17.7698ZM16.7267 17.7698H17.4205V16.7953H16.7267V17.7698ZM19.4601 16.3593H20.1539V13.4192H19.4601V16.3593ZM18.0934 16.3593H18.7872V13.4192H18.0934V16.3593ZM16.7267 16.3593H17.4205V13.4192H16.7267V16.3593Z" fill="#EC268F"/>
<path d="M41.0414 58.972V57.8794H38.6659V56.3343H37.286V54.8631H36.1098V44.4524H36.5536V37.3273C36.5536 37.0911 36.3587 36.8969 36.1098 36.8759V26.2037C36.1098 25.3428 36.0856 24.4389 36.0382 23.5163H36.1682V22.5418H35.9809C35.9721 22.4093 35.9622 22.2769 35.9523 22.1467H36.1682V21.1721H35.8719C35.8444 20.8697 35.8157 20.5751 35.7871 20.2936C36.0305 18.668 36.2717 17.4484 36.3939 16.8646L36.4159 16.7598L36.3554 16.6704C35.9942 16.1318 36.2023 15.3007 36.2111 15.2654L37.4049 10.0838V8.91724C37.3609 8.30582 37.5602 7.16024 37.9644 5.68246L38.0216 5.47497L37.8245 5.38337C37.3521 5.16264 37.0591 4.73553 37.0591 4.26869C37.0591 3.57118 37.6957 3.00391 38.4787 3.00391C39.2617 3.00391 39.8983 3.57118 39.8983 4.26869C39.8983 4.74987 39.58 5.19685 39.0866 5.40654L38.8796 5.49484L38.9379 5.70894C39.221 6.74527 39.5469 8.14469 39.4919 8.92055V10.0694L40.6846 15.2698C40.6879 15.282 40.9037 16.1307 40.5403 16.6726L40.4797 16.762L40.5018 16.8668C40.6493 17.5665 40.9555 19.1238 41.2352 21.1743H40.6471V22.1489H41.3608C41.4291 22.7106 41.494 23.3011 41.5524 23.9147H40.972V24.8892H41.6372C41.6471 25.0205 41.6581 25.1519 41.6669 25.2843H40.9709V26.2588H41.6989V25.7611C41.7705 26.8725 41.8145 28.0335 41.8145 29.2122V58.9753H41.0392L41.0414 58.972ZM40.9401 38.9342C40.6703 38.9342 40.4511 39.1373 40.4511 39.3878V46.513H41.4302V39.3878C41.4302 39.1373 41.211 38.9342 40.9412 38.9342H40.9401ZM39.3157 38.2477C39.0459 38.2477 38.8267 38.4508 38.8267 38.7013V45.8265H39.8057V38.7013C39.8057 38.4508 39.5866 38.2477 39.3168 38.2477H39.3157ZM37.6902 37.5602C37.4203 37.5602 37.2012 37.7632 37.2012 38.0138V45.1389H38.1802V38.0138C38.1802 37.7632 37.9611 37.5602 37.6913 37.5602H37.6902ZM40.972 35.8495H41.7V34.875H40.972V35.8495ZM39.5084 35.8495H40.2364V34.875H39.5084V35.8495ZM38.0437 35.8495H38.7716V34.875H38.0437V35.8495ZM36.5789 35.8495H37.3069V34.875H36.5789V35.8495ZM40.972 34.4788H41.7V33.5043H40.972V34.4788ZM39.5084 34.4788H40.2364V33.5043H39.5084V34.4788ZM38.0437 34.4788H38.7716V33.5043H38.0437V34.4788ZM36.5789 34.4788H37.3069V33.5043H36.5789V34.4788ZM40.972 33.1092H41.7V32.1346H40.972V33.1092ZM39.5084 33.1092H40.2364V32.1346H39.5084V33.1092ZM38.0437 33.1092H38.7716V32.1346H38.0437V33.1092ZM36.5789 33.1092H37.3069V32.1346H36.5789V33.1092ZM40.972 31.7384H41.7V30.7639H40.972V31.7384ZM39.5084 31.7384H40.2364V30.7639H39.5084V31.7384ZM38.0437 31.7384H38.7716V30.7639H38.0437V31.7384ZM36.5789 31.7384H37.3069V30.7639H36.5789V31.7384ZM40.972 30.3677H41.7V29.3932H40.972V30.3677ZM39.5084 30.3677H40.2364V29.3932H39.5084V30.3677ZM38.0437 30.3677H38.7716V29.3932H38.0437V30.3677ZM36.5789 30.3677H37.3069V29.3932H36.5789V30.3677ZM40.972 28.997H41.7V28.0225H40.972V28.997ZM39.5084 28.997H40.2364V28.0225H39.5084V28.997ZM38.0437 28.997H38.7716V28.0225H38.0437V28.997ZM36.5789 28.997H37.3069V28.0225H36.5789V28.997ZM40.972 27.6274H41.7V26.6528H40.972V27.6274ZM39.5084 27.6274H40.2364V26.6528H39.5084V27.6274ZM38.0437 27.6274H38.7716V26.6528H38.0437V27.6274ZM36.5789 27.6274H37.3069V26.6528H36.5789V27.6274ZM39.5084 26.2566H40.2364V25.2821H39.5084V26.2566ZM38.0437 26.2566H38.7716V25.2821H38.0437V26.2566ZM36.5789 26.2566H37.3069V25.2821H36.5789V26.2566ZM39.5084 24.8859H40.2364V23.9114H39.5084V24.8859ZM38.0437 24.8859H38.7716V23.9114H38.0437V24.8859ZM36.5789 24.8859H37.3069V23.9114H36.5789V24.8859ZM40.6471 23.5163H41.3751V22.5418H40.6471V23.5163ZM39.5084 23.5163H40.2364V22.5418H39.5084V23.5163ZM38.0437 23.5163H38.7716V22.5418H38.0437V23.5163ZM36.5789 23.5163H37.3069V22.5418H36.5789V23.5163ZM39.5084 22.1455H40.2364V21.171H39.5084V22.1455ZM38.0437 22.1455H38.7716V21.171H38.0437V22.1455ZM36.5789 22.1455H37.3069V21.171H36.5789V22.1455ZM39.5084 20.7748H40.2364V19.8003H39.5084V20.7748ZM38.0437 20.7748H38.7716V19.8003H38.0437V20.7748ZM36.5789 20.7748H37.3069V19.8003H36.5789V20.7748ZM39.5084 19.3644H40.2364V16.4242H39.5084V19.3644ZM38.0437 19.3644H38.7716V16.4242H38.0437V19.3644ZM36.5789 19.3644H37.3069V16.4242H36.5789V19.3644Z" fill="#EC268F"/>
<path d="M34.6818 53.9803V52.8027H33.2259V51.9143L29.6159 48.7556H28.8516V26.2037C28.8516 25.5813 28.8637 24.9632 28.8857 24.3551V24.6211H29.6137V23.6466H28.9154C28.922 23.5142 28.9287 23.3828 28.9364 23.2515H29.6137V22.277H28.9991C29.0091 22.1445 29.019 22.0121 29.0289 21.8819H29.6126V20.9073H29.1137C29.1445 20.5873 29.1764 20.2739 29.2095 19.9681V20.5122H29.9374V19.5377H29.2579C29.2734 19.4042 29.2888 19.2728 29.3053 19.1426H29.9385V18.1681H29.4319C29.7117 16.1164 30.0178 14.5603 30.1654 13.8606L30.1874 13.7557L30.1269 13.6663C29.7645 13.1255 29.9804 12.2702 29.9826 12.2625L31.1764 7.08087V5.91431C31.1202 5.13404 31.4506 3.72468 31.737 2.67953L31.7942 2.47204L31.5971 2.38044C31.1246 2.15971 30.8317 1.7326 30.8317 1.26575C30.8317 0.568251 31.4682 0.000976562 32.2513 0.000976562C33.0343 0.000976562 33.6708 0.568251 33.6708 1.26575C33.6708 1.74694 33.3526 2.19392 32.8592 2.40361L32.6521 2.49191L32.7105 2.70601C32.9935 3.74344 33.3195 5.14176 33.2634 5.91762V7.06652L34.4572 12.2669C34.4605 12.279 34.6774 13.1255 34.3118 13.6696L34.2523 13.759L34.2744 13.8639C34.4175 14.547 34.7259 16.1076 35.0067 18.1725H34.4186V19.147H35.1323C35.1774 19.5201 35.2215 19.9052 35.2633 20.3014C35.2842 20.5023 35.3041 20.7065 35.3239 20.9129H34.7435V21.8874H35.4087C35.4186 22.0176 35.4285 22.1501 35.4384 22.2825H34.7435V23.257H35.4715V22.7626C35.4858 22.9789 35.4979 23.1974 35.51 23.417C35.521 23.6212 35.5309 23.8254 35.5397 24.0318C35.5508 24.2812 35.5596 24.5317 35.5662 24.7845C35.5717 24.9886 35.5761 25.1939 35.5794 25.3992C35.5838 25.6486 35.586 25.9002 35.586 26.1519V53.9858H34.6807L34.6818 53.9803ZM34.7105 35.9291C34.6873 35.9291 34.6697 35.9335 34.6576 35.9368C34.4076 35.9644 34.2204 36.1553 34.2204 36.3827V43.5078H35.1994V36.3827C35.1994 36.2558 35.1433 36.1388 35.042 36.0505C34.9913 36.0063 34.9252 35.9732 34.8481 35.9523C34.8063 35.9401 34.7622 35.9291 34.7105 35.9291ZM33.0861 35.2415C32.8162 35.2415 32.5971 35.4446 32.5971 35.6951V42.8202H33.5761V35.6951C33.5761 35.4446 33.357 35.2415 33.0872 35.2415H33.0861ZM31.4605 34.555C31.1907 34.555 30.9716 34.7581 30.9716 35.0086V42.1338H31.9506V35.0086C31.9506 34.7581 31.7315 34.555 31.4616 34.555H31.4605ZM29.835 33.8686C29.5652 33.8686 29.346 34.0716 29.346 34.3222V41.4473H30.3251V34.3222C30.3251 34.0716 30.1059 33.8686 29.8361 33.8686H29.835ZM34.7424 32.8444H35.4704V31.8699H34.7424V32.8444ZM33.2788 32.8444H34.0067V31.8699H33.2788V32.8444ZM31.8141 32.8444H32.542V31.8699H31.8141V32.8444ZM30.3493 32.8444H31.0773V31.8699H30.3493V32.8444ZM28.8857 32.8444H29.6137V31.8699H28.8857V32.8444ZM34.7424 31.4737H35.4704V30.4991H34.7424V31.4737ZM33.2788 31.4737H34.0067V30.4991H33.2788V31.4737ZM31.8141 31.4737H32.542V30.4991H31.8141V31.4737ZM30.3493 31.4737H31.0773V30.4991H30.3493V31.4737ZM28.8857 31.4737H29.6137V30.4991H28.8857V31.4737ZM34.7424 30.104H35.4704V29.1295H34.7424V30.104ZM33.2788 30.104H34.0067V29.1295H33.2788V30.104ZM31.8141 30.104H32.542V29.1295H31.8141V30.104ZM30.3493 30.104H31.0773V29.1295H30.3493V30.104ZM28.8857 30.104H29.6137V29.1295H28.8857V30.104ZM34.7424 28.7333H35.4704V27.7588H34.7424V28.7333ZM33.2788 28.7333H34.0067V27.7588H33.2788V28.7333ZM31.8141 28.7333H32.542V27.7588H31.8141V28.7333ZM30.3493 28.7333H31.0773V27.7588H30.3493V28.7333ZM28.8857 28.7333H29.6137V27.7588H28.8857V28.7333ZM34.7424 27.3626H35.4704V26.3881H34.7424V27.3626ZM33.2788 27.3626H34.0067V26.3881H33.2788V27.3626ZM31.8141 27.3626H32.542V26.3881H31.8141V27.3626ZM30.3493 27.3626H31.0773V26.3881H30.3493V27.3626ZM28.8857 27.3626H29.6137V26.3881H28.8857V27.3626ZM34.7424 25.9918H35.4704V25.0173H34.7424V25.9918ZM33.2788 25.9918H34.0067V25.0173H33.2788V25.9918ZM31.8141 25.9918H32.542V25.0173H31.8141V25.9918ZM30.3493 25.9918H31.0773V25.0173H30.3493V25.9918ZM28.8857 25.9918H29.6137V25.0173H28.8857V25.9918ZM34.7424 24.6222H35.4704V23.6477H34.7424V24.6222ZM33.2788 24.6222H34.0067V23.6477H33.2788V24.6222ZM31.8141 24.6222H32.542V23.6477H31.8141V24.6222ZM30.3493 24.6222H31.0773V23.6477H30.3493V24.6222ZM33.2788 23.2515H34.0067V22.277H33.2788V23.2515ZM31.8141 23.2515H32.542V22.277H31.8141V23.2515ZM30.3493 23.2515H31.0773V22.277H30.3493V23.2515ZM33.2788 21.8808H34.0067V20.9062H33.2788V21.8808ZM31.8141 21.8808H32.542V20.9062H31.8141V21.8808ZM30.3493 21.8808H31.0773V20.9062H30.3493V21.8808ZM34.4175 20.51H35.1455V19.5355H34.4175V20.51ZM33.2788 20.51H34.0067V19.5355H33.2788V20.51ZM31.8141 20.51H32.542V19.5355H31.8141V20.51ZM30.3493 20.51H31.0773V19.5355H30.3493V20.51ZM33.2788 19.1404H34.0067V18.1659H33.2788V19.1404ZM31.8141 19.1404H32.542V18.1659H31.8141V19.1404ZM30.3493 19.1404H31.0773V18.1659H30.3493V19.1404ZM33.2788 17.7697H34.0067V16.7952H33.2788V17.7697ZM31.8141 17.7697H32.542V16.7952H31.8141V17.7697ZM30.3493 17.7697H31.0773V16.7952H30.3493V17.7697ZM33.2788 16.3592H34.0067V13.4191H33.2788V16.3592ZM31.8141 16.3592H32.542V13.4191H31.8141V16.3592ZM30.3493 16.3592H31.0773V13.4191H30.3493V16.3592Z" fill="#EC268F"/>
<path d="M4.28235 48.647V46.049H4.35063V45.1253H4.28125V43.429L4.37046 42.8517H4.76031V46.3647H5.60721V42.5173C5.60721 42.3904 5.55105 42.269 5.45193 42.184C5.39356 42.1344 5.32418 42.1024 5.24599 42.0902C5.22947 42.0858 5.20964 42.0792 5.18431 42.0792C5.12374 42.0792 5.07198 42.0958 5.03784 42.109C4.92551 42.152 4.84071 42.237 4.79556 42.343H4.44865L5.29444 36.8711L6.29002 43.4069V49.6226L5.37814 53.9666L4.28125 48.647H4.28235ZM5.62594 42.8517H6.12152V42.343H5.62594V42.8517ZM4.76252 40.4988L4.96846 40.5705C5.02903 40.4535 5.0907 40.3663 5.15348 40.3045C5.19092 40.2681 5.22727 40.2449 5.2581 40.2361C5.27022 40.2328 5.28123 40.2317 5.29224 40.2317C5.30766 40.2317 5.32198 40.235 5.33739 40.2405C5.45634 40.2913 5.55655 40.4922 5.58188 40.5584L5.79333 40.4977L5.38585 38.3091H5.1689L4.76142 40.4977L4.76252 40.4988Z" fill="#EC268F"/>
<path d="M7.69154 47.6161V46.3656H8.2587V42.5183C8.2587 42.2766 8.06818 42.0802 7.8347 42.0802C7.6607 42.0802 7.51202 42.1883 7.44595 42.3439H7.09904L7.94483 36.8721L8.94041 43.4079V53.6762L7.69043 47.6172L7.69154 47.6161ZM8.27633 42.8516H8.77191V42.3428H8.27633V42.8516ZM7.41291 40.4987L7.61885 40.5704C7.73118 40.3541 7.84902 40.2294 7.94043 40.2294C8.06488 40.2294 8.19153 40.4512 8.23227 40.5594L8.44372 40.4998L8.03624 38.3112H7.81929L7.41181 40.4998L7.41291 40.4987ZM6.93164 44.2687V43.4288L7.02085 42.8516H7.41071V44.2676H6.93164V44.2687Z" fill="#EC268F"/>
<path d="M6.8631 45.9385H6.82227V47.6315L6.8631 47.4361V45.9385Z" fill="#EC268F"/>
<path d="M43.6016 43.4287L43.6908 42.8515H44.0806V45.125H43.9242V46.0488H44.0806V46.3655H44.2667V47.425L43.6016 50.5936V43.4298V43.4287ZM45.2062 47.6159V46.0488H45.5432V45.125H45.2062V44.2686H44.9286V42.5182C44.9286 42.2765 44.7381 42.08 44.5046 42.08C44.3306 42.08 44.1819 42.1882 44.1159 42.3438H43.769L44.6159 36.873L45.5938 43.2896L45.5784 43.3912V49.4193L45.2062 47.617V47.6159ZM44.9462 42.8515H45.4418V42.3427H44.9462V42.8515ZM44.0839 40.4985L44.2899 40.5703C44.4022 40.3539 44.52 40.2292 44.6115 40.2292C44.737 40.2292 44.8625 40.4511 44.9033 40.5592L45.1147 40.4996L44.7073 38.3111H44.4903L44.0828 40.4996L44.0839 40.4985Z" fill="#EC268F"/>
<path d="M46.1007 51.9545V43.4288L46.1888 42.8516H46.5787V46.3645H47.4256V42.5172C47.4256 42.4179 47.3903 42.3208 47.3243 42.2391C47.2714 42.174 47.1998 42.1265 47.1183 42.1023C47.0798 42.0901 47.0445 42.0802 47.0027 42.0802C46.9707 42.0802 46.9443 42.0879 46.9245 42.0934L46.9102 42.0978C46.7747 42.1298 46.6679 42.2225 46.6139 42.3439H46.2659L47.1128 36.8721L48.1084 43.4079V44.2687H47.9564V45.1251H47.6139V46.0489H47.9564V47.4251L46.5489 54.132L46.0996 51.9545H46.1007ZM47.4432 42.8516H47.9388V42.3428H47.4432V42.8516ZM46.5809 40.4987L46.7868 40.5704C46.8606 40.4291 46.9333 40.3287 47.0038 40.2735C47.0379 40.247 47.0687 40.2316 47.0985 40.2294H47.1084C47.1315 40.2294 47.1547 40.2371 47.1822 40.2536C47.2912 40.321 47.3793 40.5009 47.4024 40.5582L47.6139 40.4975L47.2064 38.309H46.9895L46.582 40.4975L46.5809 40.4987Z" fill="#EC268F"/>
<path d="M5.85488 66.7835V65.8741H5.67317V59.7102H5.9584V61.0688C5.90113 61.1262 5.8692 61.2024 5.8692 61.2829C5.8692 61.3635 5.90223 61.4397 5.9584 61.497V63.0675H5.91765V63.6116H5.9584V64.1016C5.91325 64.191 5.89012 64.2859 5.89012 64.3831V66.6168H6.42535C6.42866 66.672 6.43086 66.7272 6.43306 66.7824H5.85488V66.7835ZM8.76671 59.5723V59.2412H7.88567V59.5723H6.54209V59.2412H5.67096V55.3751L5.64453 55.2504L7.20287 47.8262L8.77112 55.427V59.5734H8.76671V59.5723ZM8.12025 57.8064H8.63786V56.2117H8.12025V57.8064ZM7.53216 57.8064H8.04977V56.2117H7.53216V57.8064ZM6.94516 57.8064H7.46277V56.2117H6.94516V57.8064ZM6.35707 57.8064H6.87468V56.2117H6.35707V57.8064ZM5.77008 57.8064H6.28769V56.2117H5.77008V57.8064ZM7.94845 55.2681H8.51341V54.5695H7.94845V55.2681ZM5.91765 55.2681H6.48262V54.5695H5.91765V55.2681ZM7.20397 53.3179C6.99362 53.3179 6.81191 53.5022 6.7172 53.8101C6.67535 53.9459 6.65442 54.0905 6.65442 54.2373C6.65442 54.384 6.67535 54.5286 6.7172 54.6655C6.81191 54.9734 6.99362 55.1577 7.20397 55.1577C7.51233 55.1577 7.75352 54.7538 7.75352 54.2384C7.75352 53.723 7.51233 53.319 7.20397 53.319V53.3179ZM7.09604 49.8381L6.65662 52.0266L6.86036 52.1028C6.87358 52.0785 6.8879 52.0576 6.90111 52.0377L6.91543 52.0167C7.02336 51.8501 7.12798 51.7629 7.21829 51.7629C7.37027 51.7629 7.50573 52.0068 7.54097 52.0918L7.75021 52.0278L7.3108 49.8392H7.09494L7.09604 49.8381Z" fill="#EC268F"/>
<path d="M8.37695 66.7839C8.50608 66.5047 8.63852 66.2365 8.77206 65.9805V66.7839H8.37695Z" fill="#EC268F"/>
<path d="M44.5286 66.7836C44.5308 66.7273 44.533 66.6722 44.5363 66.6181H44.6134V66.0022C44.6574 65.7771 44.7202 65.5773 44.7995 65.4074V66.6181H46.0065V64.3843C46.0065 64.0444 45.7356 63.7674 45.403 63.7674C45.2973 63.7674 45.1937 63.7961 45.1045 63.8479V63.6129H45.3666V63.1504H45.4955V63.6129H46.0494V63.0688H45.7158V62.6063H45.1618V63.0688H45.1045V62.4231C45.1585 62.4651 45.2257 62.4882 45.2995 62.4882C45.3534 62.4882 45.4074 62.4739 45.4558 62.4474C45.5439 62.3977 45.6012 62.3128 45.6122 62.2123C45.6166 62.1737 45.6133 62.1351 45.6034 62.0975C45.6309 62.1053 45.6596 62.1086 45.6882 62.1086C45.8017 62.1086 45.903 62.0512 45.9602 61.9552C46.0109 61.8702 46.0175 61.7698 45.9779 61.6793C45.9624 61.6428 45.9393 61.6097 45.9118 61.5821C46.0461 61.5468 46.1464 61.4265 46.1464 61.2831C46.1464 61.1396 46.0472 61.0193 45.9118 60.984C45.9393 60.9564 45.9624 60.9233 45.9779 60.8868C46.0164 60.7963 46.0109 60.6959 45.9602 60.6109C45.903 60.5149 45.8017 60.4575 45.6882 60.4575C45.6585 60.4575 45.6309 60.4619 45.6034 60.4686C45.6133 60.4321 45.6166 60.3935 45.6122 60.3549C45.6012 60.2556 45.5439 60.1695 45.4558 60.1198C45.4085 60.0933 45.3545 60.079 45.2995 60.079C45.2268 60.079 45.1585 60.1033 45.1045 60.1441V59.5724H44.0594V59.2413H43.1784V59.5724H43.1211V55.4415L44.7191 47.8252L46.2873 55.426V65.8742H46.1827V66.7836H44.5286ZM46.2829 59.7104V59.2413H45.4019V59.7104H46.2829ZM45.6365 57.8066H46.1541V56.2118H45.6365V57.8066ZM45.0495 57.8066H45.5671V56.2118H45.0495V57.8066ZM44.4614 57.8066H44.979V56.2118H44.4614V57.8066ZM43.8733 57.8066H44.3909V56.2118H43.8733V57.8066ZM43.2863 57.8066H43.8039V56.2118H43.2863V57.8066ZM45.4647 55.2682H46.0296V54.5696H45.4647V55.2682ZM43.435 55.2682H43.9999V54.5696H43.435V55.2682ZM44.7202 53.318C44.4118 53.318 44.1706 53.722 44.1706 54.2374C44.1706 54.6358 44.3204 54.9857 44.5429 55.1071C44.6045 55.1413 44.6629 55.1578 44.7202 55.1578C44.7774 55.1578 44.8347 55.1413 44.8964 55.1082C45.1188 54.9868 45.2686 54.6369 45.2686 54.2385C45.2686 53.7231 45.0274 53.3191 44.7191 53.3191L44.7202 53.318ZM44.1728 52.0268L44.3766 52.1029C44.501 51.8811 44.6277 51.7586 44.7334 51.7586C44.8854 51.7586 45.0219 52.0047 45.0572 52.0908L45.2664 52.0268L44.827 49.8382H44.6111L44.1717 52.0268H44.1728Z" fill="#EC268F"/>
<path d="M47.7987 66.7835V66.618H48.3009V64.3842C48.3009 64.0443 48.0299 63.7672 47.6973 63.7672C47.3647 63.7672 47.0938 64.0443 47.0938 64.3842V65.0177H46.8086V55.4413L48.4066 47.8262L49.9748 55.427V65.8752H49.694V66.7846H47.7976L47.7987 66.7835ZM49.0905 63.7661C48.7579 63.7661 48.487 64.0431 48.487 64.3831V66.6168H49.694V64.3831C49.694 64.0431 49.4231 63.7661 49.0905 63.7661ZM49.183 63.6116H49.7369V63.0675H49.4033V62.6051H48.8493V63.0675H48.5002V63.6116H49.0541V63.1492H49.183V63.6116ZM47.8053 63.6116H48.3592V63.0675H48.0255V62.6051H47.4716V63.0675H47.1225V63.6116H47.6764V63.1492H47.8053V63.6116ZM48.1478 62.3932C48.1577 62.4296 48.1742 62.4649 48.1973 62.4969C48.2568 62.5775 48.3526 62.6261 48.4539 62.6261C48.5552 62.6261 48.6511 62.5775 48.7105 62.4969C48.7337 62.4649 48.7502 62.4296 48.7601 62.3932C48.8174 62.4517 48.8989 62.4881 48.987 62.4881C49.0409 62.4881 49.0949 62.4738 49.1433 62.4473C49.2314 62.3976 49.2887 62.3126 49.2997 62.2122C49.3041 62.1736 49.3008 62.1349 49.2909 62.0974C49.3184 62.1051 49.3471 62.1085 49.3757 62.1085C49.4892 62.1085 49.5916 62.0511 49.6477 61.955C49.6984 61.8701 49.705 61.7696 49.6654 61.6791C49.6499 61.6427 49.6268 61.6096 49.5982 61.582C49.7325 61.5467 49.8328 61.4264 49.8328 61.2829C49.8328 61.1395 49.7336 61.0192 49.5982 60.9838C49.6257 60.9563 49.6488 60.9231 49.6654 60.8867C49.7039 60.7962 49.6984 60.6958 49.6477 60.6108C49.5905 60.5148 49.4892 60.4574 49.3757 60.4574C49.346 60.4574 49.3173 60.4618 49.2909 60.4684C49.3008 60.432 49.3041 60.3934 49.2997 60.3548C49.2887 60.2554 49.2314 60.1693 49.1433 60.1197C49.096 60.0932 49.042 60.0789 48.987 60.0789C48.8978 60.0789 48.8174 60.1142 48.7601 60.1738C48.7502 60.1373 48.7337 60.102 48.7105 60.07C48.6511 59.9895 48.5552 59.9409 48.4539 59.9409C48.3526 59.9409 48.2568 59.9895 48.1984 60.07C48.1753 60.102 48.1588 60.1373 48.1489 60.1738C48.0916 60.1153 48.0101 60.0789 47.922 60.0789C47.868 60.0789 47.8141 60.0932 47.7656 60.1197C47.6775 60.1693 47.6202 60.2554 47.6092 60.3548C47.6048 60.3934 47.6081 60.432 47.618 60.4684C47.5905 60.4607 47.5619 60.4574 47.5332 60.4574C47.4198 60.4574 47.3185 60.5148 47.2612 60.6108C47.2106 60.6958 47.204 60.7962 47.2436 60.8867C47.259 60.9231 47.2822 60.9563 47.3108 60.9838C47.1764 61.0192 47.0762 61.1395 47.0762 61.2829C47.0762 61.4264 47.1753 61.5467 47.3108 61.582C47.2833 61.6096 47.2601 61.6427 47.2436 61.6791C47.2051 61.7696 47.2117 61.8701 47.2623 61.955C47.3196 62.0511 47.4209 62.1085 47.5343 62.1085C47.563 62.1085 47.5916 62.1051 47.6191 62.0974C47.6092 62.1338 47.6059 62.1725 47.6103 62.2122C47.6214 62.3115 47.6786 62.3976 47.7678 62.4473C47.8152 62.4738 47.8691 62.4881 47.9242 62.4881C48.0123 62.4881 48.0938 62.4528 48.1511 62.3932H48.1478ZM49.9715 59.7102V59.2412H49.0905V59.7102H49.9715ZM47.7469 59.7102V59.2412H46.8659V59.7102H47.7469ZM49.3251 57.8064H49.8427V56.2117H49.3251V57.8064ZM48.737 57.8064H49.2546V56.2117H48.737V57.8064ZM48.15 57.8064H48.6676V56.2117H48.15V57.8064ZM47.5619 57.8064H48.0795V56.2117H47.5619V57.8064ZM46.9738 57.8064H47.4914V56.2117H46.9738V57.8064ZM49.1522 55.2681H49.7171V54.5695H49.1522V55.2681ZM47.1225 55.2681H47.6874V54.5695H47.1225V55.2681ZM48.4077 53.3179C48.3857 53.3179 48.3691 53.3223 48.3581 53.3245C48.335 53.329 48.3218 53.3312 48.3086 53.3345C48.2513 53.351 48.1973 53.3819 48.1467 53.4261C47.9694 53.5828 47.8592 53.894 47.8592 54.2373C47.8592 54.5805 47.9694 54.8906 48.1467 55.0473C48.172 55.0694 48.1995 55.0882 48.2315 55.1058C48.2711 55.1268 48.3119 55.1411 48.3537 55.1478C48.3691 55.1522 48.3868 55.1566 48.4088 55.1566C48.4473 55.1566 48.487 55.15 48.5288 55.1345C48.542 55.1301 48.5542 55.1235 48.5663 55.1169C48.6301 55.0848 48.6819 55.0429 48.7282 54.9899C48.8724 54.82 48.9594 54.5385 48.9594 54.2361C48.9594 53.9337 48.8735 53.6523 48.7293 53.4824C48.683 53.4294 48.6312 53.3874 48.5729 53.3588C48.5553 53.3488 48.5431 53.3422 48.5299 53.3378C48.4881 53.3234 48.4495 53.3157 48.4099 53.3157L48.4077 53.3179ZM48.2997 49.8381L47.8603 52.0266L48.0641 52.1028C48.1379 51.9715 48.2127 51.8755 48.2865 51.817C48.3163 51.7938 48.346 51.7772 48.3724 51.7684C48.3801 51.7662 48.3856 51.7651 48.3923 51.764C48.4033 51.7618 48.4132 51.7607 48.4231 51.7607C48.4363 51.7607 48.4484 51.7629 48.4605 51.7662C48.4671 51.7684 48.4738 51.7695 48.4804 51.7717C48.5101 51.7838 48.5398 51.8026 48.5685 51.8302C48.6764 51.9295 48.7447 52.0896 48.7458 52.0918L48.955 52.0278L48.5156 49.8392H48.2997V49.8381Z" fill="#EC268F"/>
<path d="M2.30485 66.7835V66.618H3.47663V64.3842C3.47663 64.0443 3.20571 63.7672 2.87312 63.7672C2.54053 63.7672 2.26961 64.0443 2.26961 64.3842V65.8752H1.98438V55.4424L3.58236 47.8262L5.15061 55.427V65.0177H4.86867V64.3842C4.86867 64.0443 4.59776 63.7672 4.26516 63.7672C3.93257 63.7672 3.66165 64.0443 3.66165 64.3842V66.618H4.23763V66.7835H2.30375H2.30485ZM4.35877 63.6116H4.91273V63.0675H4.57903V62.6051H4.02508V63.0675H3.67597V63.6116H4.22992V63.1492H4.35877V63.6116ZM2.98105 63.6116H3.535V63.0675H3.20131V62.6051H2.64736V63.0675H2.29824V63.6116H2.8522V63.1492H2.98105V63.6116ZM3.32355 62.3932C3.33347 62.4296 3.34998 62.4649 3.37311 62.4969C3.43258 62.5775 3.52839 62.6261 3.62971 62.6261C3.73103 62.6261 3.82685 62.5775 3.88632 62.4969C3.90944 62.4649 3.92596 62.4296 3.93588 62.3932C3.99314 62.4517 4.07464 62.4881 4.16274 62.4881C4.21671 62.4881 4.27067 62.4738 4.31913 62.4473C4.40723 62.3976 4.4645 62.3126 4.47551 62.2122C4.47992 62.1736 4.47661 62.1349 4.4667 62.0974C4.49423 62.1051 4.52287 62.1085 4.5515 62.1085C4.66493 62.1085 4.76625 62.0511 4.82352 61.955C4.87418 61.8701 4.88079 61.7696 4.84114 61.6791C4.82572 61.6427 4.8026 61.6096 4.77396 61.582C4.90832 61.5467 5.00854 61.4264 5.00854 61.2829C5.00854 61.1395 4.90942 61.0192 4.77396 60.9838C4.8015 60.9563 4.82462 60.9231 4.84004 60.8867C4.87859 60.7962 4.87308 60.6958 4.82242 60.6108C4.76515 60.5148 4.66383 60.4574 4.5504 60.4574C4.52066 60.4574 4.49313 60.4618 4.4656 60.4684C4.47551 60.432 4.47882 60.3934 4.47441 60.3548C4.4634 60.2554 4.40613 60.1693 4.31803 60.1197C4.27067 60.0932 4.21671 60.0789 4.16164 60.0789C4.07354 60.0789 3.99204 60.1142 3.93477 60.1738C3.92486 60.1373 3.90834 60.102 3.88522 60.07C3.82575 59.9895 3.72993 59.9409 3.62861 59.9409C3.52729 59.9409 3.43148 59.9895 3.37201 60.07C3.34888 60.102 3.33236 60.1373 3.32245 60.1738C3.26518 60.1153 3.18369 60.0789 3.09558 60.0789C3.04162 60.0789 2.98766 60.0932 2.9392 60.1197C2.85 60.1693 2.79383 60.2554 2.78282 60.3548C2.77841 60.3934 2.78171 60.432 2.79163 60.4684C2.76409 60.4607 2.73546 60.4574 2.70683 60.4574C2.59339 60.4574 2.49207 60.5148 2.43481 60.6108C2.38415 60.6958 2.37754 60.7962 2.41719 60.8867C2.4326 60.9231 2.45573 60.9563 2.48326 60.9838C2.3489 61.0192 2.24869 61.1395 2.24869 61.2829C2.24869 61.4264 2.3478 61.5467 2.48326 61.582C2.45573 61.6096 2.4326 61.6427 2.41608 61.6791C2.37754 61.7696 2.38415 61.8701 2.43481 61.955C2.49207 62.0511 2.59339 62.1085 2.70683 62.1085C2.73656 62.1085 2.76409 62.1051 2.79163 62.0974C2.78171 62.1338 2.77841 62.1725 2.78282 62.2122C2.79383 62.3115 2.8511 62.3976 2.9403 62.4473C2.98766 62.4738 3.04162 62.4881 3.09669 62.4881C3.18479 62.4881 3.26629 62.4528 3.32355 62.3932ZM5.1473 59.7102V59.2412H4.26626V59.7102H5.1473ZM2.92268 59.7102V59.2412H2.04164V59.7102H2.92268ZM4.50084 57.8064H5.01845V56.2117H4.50084V57.8064ZM3.91275 57.8064H4.43036V56.2117H3.91275V57.8064ZM3.32576 57.8064H3.84337V56.2117H3.32576V57.8064ZM2.73766 57.8064H3.25527V56.2117H2.73766V57.8064ZM2.14957 57.8064H2.66718V56.2117H2.14957V57.8064ZM4.32794 55.2681H4.8929V54.5695H4.32794V55.2681ZM2.29824 55.2681H2.86321V54.5695H2.29824V55.2681ZM3.56033 53.3201C3.49095 53.3245 3.42377 53.3499 3.3599 53.3952C3.28831 53.447 3.22554 53.521 3.17598 53.6137C3.08457 53.7826 3.03501 54.0033 3.03501 54.2373C3.03501 54.4712 3.08567 54.692 3.17598 54.8608C3.22664 54.9535 3.28831 55.0275 3.3599 55.0793C3.43148 55.1312 3.50747 55.1577 3.58346 55.1577C3.7002 55.1577 3.81033 55.0992 3.90394 54.9899C3.92927 54.9601 3.95019 54.9281 3.96451 54.9028C4.07244 54.7284 4.13301 54.4922 4.13301 54.2373C4.13301 53.9823 4.07354 53.7461 3.96451 53.5718C3.86319 53.4073 3.72773 53.3179 3.58346 53.3179H3.56804L3.56033 53.3201ZM3.03722 52.0266L3.24096 52.1028C3.2762 52.0388 3.31364 51.9836 3.3588 51.9262C3.40505 51.8677 3.4469 51.8258 3.48544 51.8004C3.52179 51.7761 3.55483 51.7629 3.58456 51.7596H3.59668C3.65725 51.7596 3.72112 51.7982 3.7872 51.8755C3.8709 51.9726 3.92046 52.0907 3.92046 52.0918L4.1297 52.0266L3.69029 49.8381H3.47443L3.03501 52.0266H3.03722Z" fill="#EC268F"/>
<path d="M48.4864 79.3508C48.363 79.1896 48.1846 78.8883 47.9544 78.3983L47.9247 78.3343H47.9192C47.9192 78.3343 47.9148 78.3255 47.9126 78.32C47.8983 78.2858 47.8807 78.2438 47.8619 78.1975C47.6989 77.788 47.3807 76.8797 46.9159 75.4991V73.4231C46.9159 73.0832 46.667 72.8062 46.3609 72.8062C46.2496 72.8062 46.1428 72.8426 46.0536 72.9099C45.8576 72.3161 45.6681 71.7378 45.4941 71.2092V70.4841L47.0029 67.7812L48.4853 70.483V78.3487H48.4875V79.3508H48.4864ZM47.6185 72.8073C47.3124 72.8073 47.0635 73.0843 47.0635 73.4242V75.658H48.1747V73.4242C48.1747 73.0843 47.9258 72.8073 47.6196 72.8073H47.6185ZM47.5932 71.6882H48.167V70.9896H47.8696V70.3329H47.5723V69.6773H47.2749V69.0218H46.7012V69.6773H46.4038V70.3329H46.1065V70.9896H45.8091V71.6882H46.3829V71.0315H46.4027V71.6882H46.9765V71.0315H46.9963V71.6882H47.5701V71.0315H47.5899V71.6882H47.5932ZM47.2771 70.9896V70.3759H47.297V70.9896H47.2771ZM46.6835 70.9896V70.3759H46.7034V70.9896H46.6835ZM46.9798 70.3329V69.7193H46.9996V70.3329H46.9798Z" fill="#EC268F"/>
<path d="M49.0098 79.9908V70.4851L50.5185 67.7822L52.0009 70.484V79.9908H49.0098ZM51.1353 72.8071C50.9458 72.8071 50.7707 72.9131 50.6672 73.0919C50.61 73.1912 50.5791 73.3071 50.5791 73.4241V75.6579H51.6903V73.4241C51.6903 73.0841 51.4414 72.8071 51.1353 72.8071ZM49.8765 72.8071C49.5703 72.8071 49.3214 73.0841 49.3214 73.4241V75.6579H50.4326V73.4241C50.4326 73.0841 50.1838 72.8071 49.8776 72.8071H49.8765ZM51.1088 71.688H51.6826V70.9894H51.3853V70.3328H51.0879V69.6772H50.7906V69.0216H50.2168V69.6772H49.9194V70.3328H49.6221V70.9894H49.3247V71.688H49.8985V71.0314H49.9183V71.688H50.4921V71.0314H50.5119V71.688H51.0857V71.0314H51.1055V71.688H51.1088ZM50.7928 70.9894V70.3758H50.8126V70.9894H50.7928ZM50.1992 70.9894V70.3758H50.219V70.9894H50.1992ZM50.4965 70.3328V69.7191H50.5163V70.3328H50.4965Z" fill="#EC268F"/>
<path d="M3.55103 70.4852L5.05981 67.7812L6.01684 69.525L5.75363 70.3329H5.63138V69.6773H5.33403V69.0218H4.76026V69.6773H4.46291V70.3329H4.16555V70.9896H3.8682V71.6882H4.44198V71.0315H4.4618V71.6882H5.03558V71.0315H5.0554V71.6882H5.3087C5.16553 72.1241 5.01355 72.5854 4.85937 73.0523C4.75805 72.9022 4.59726 72.8073 4.41665 72.8073C4.11049 72.8073 3.8605 73.0843 3.8605 73.4242V75.658H3.98935C3.82305 76.1491 3.67658 76.5795 3.54883 76.9448V70.4841L3.55103 70.4852ZM5.33403 70.9896V70.3759H5.35386V70.9896H5.33403ZM4.74043 70.9896V70.3759H4.76026V70.9896H4.74043ZM5.03778 70.3329V69.7193H5.05761V70.3329H5.03778Z" fill="#EC268F"/>
<path d="M42.61 79.9989V79.8488C42.794 79.7109 42.9404 79.5277 43.0439 79.3014C43.0506 79.2871 43.0572 79.2705 43.0638 79.2551L43.0704 79.2396C43.099 79.148 43.1243 79.0553 43.1464 78.9725C43.1629 78.9129 43.175 78.8622 43.1849 78.8246L43.2069 78.7352L38.3921 64.0932C37.6057 61.7689 36.5661 60.4103 35.7203 59.6322L42.4845 63.8261L44.3875 65.0622C44.3468 65.1372 44.3093 65.2167 44.2763 65.2983C44.2113 65.4584 44.1585 65.6261 44.1188 65.7983C44.0715 66.0091 44.0373 66.2453 44.0175 66.5013C44.0076 66.6249 44.0021 66.7541 43.9999 66.8942V66.9362C43.9988 66.9726 43.9977 67.0079 43.9977 67.0443C43.9977 67.0807 43.9977 67.1172 43.9999 67.1525V67.1933C44.0197 68.1082 44.1838 68.8698 44.1849 68.8775C44.2256 69.0044 44.5472 69.9988 44.9767 71.3121L45.2796 72.237C45.4503 72.7568 45.6298 73.302 45.8104 73.8461L46.0923 74.6948C46.1937 74.9994 46.2939 75.2974 46.3919 75.5865C46.9161 77.1427 47.2608 78.1194 47.4161 78.4913L47.4304 78.5256C47.4414 78.552 47.4524 78.5752 47.4635 78.5995L47.4921 78.6613C47.5119 78.7065 47.5328 78.7507 47.5527 78.7915C47.8555 79.4151 48.1275 79.6921 48.3192 79.8135V79.9934H46.3655V79.9614C46.9514 79.6435 46.9734 79.0023 46.9536 78.7341C46.9492 78.6723 46.9436 78.6227 46.9359 78.5763C46.9282 78.5322 46.9205 78.4891 46.9117 78.4516L43.9272 68.7804C43.74 68.2164 43.5351 67.6679 43.316 67.147L43.2532 66.9991C43.2323 66.9494 43.2102 66.8997 43.1893 66.8512C43.1629 66.7905 43.1365 66.7309 43.1089 66.6713C43.0583 66.5587 43.0076 66.4483 42.9558 66.3413C42.9052 66.2342 42.8545 66.1294 42.8039 66.0279C41.6398 63.697 40.5473 62.8505 40.5011 62.8151L40.2775 62.6452L40.1222 62.877C39.3061 64.091 40.2995 67.744 40.3425 67.8985L43.7356 78.6205C43.7598 78.6955 43.7851 78.7661 43.8105 78.8346C43.8303 78.8875 43.8501 78.9383 43.8699 78.9858C43.9371 79.1469 43.9988 79.2694 44.0384 79.3433L44.0417 79.35L44.0461 79.3555C44.2157 79.5939 44.3688 79.7539 44.4668 79.8455C44.4977 79.8753 44.5274 79.9007 44.5538 79.9239V79.9989H42.6089H42.61ZM34.3646 79.9989L34.3382 79.6943C34.7644 79.4559 35.0474 79.0509 35.1807 78.4913C35.2457 78.2198 35.2732 77.9075 35.2644 77.5654V77.5378L35.26 77.5168L34.9384 76.2818H34.9362L31.4957 62.9288C29.6797 56.2451 25.6622 53.6063 25.6225 53.5798L25.4804 53.4893L25.3384 53.5798C25.2976 53.6063 21.2812 56.2451 19.4641 62.9288L15.6073 77.8998V77.9163C15.6227 78.2022 15.6657 78.4615 15.734 78.6867C15.8716 79.1414 16.1172 79.478 16.4619 79.6877L16.4377 79.9978H13.2153V79.3599C13.6933 79.0994 14.3309 78.6006 14.7703 77.6735L14.7747 77.6636L15.1745 76.0512C16.1447 72.1388 17.343 67.3059 17.7251 65.7619L17.8485 65.263C17.9024 65.0567 19.1557 60.1565 17.2306 58.5992L17.1315 58.5187L25.5311 53.3105L33.9913 58.5551C33.9781 58.5518 33.9693 58.5484 33.9626 58.5473L33.8338 58.5153L33.7314 58.5981C31.8074 60.1543 33.0585 65.0533 33.1124 65.2608C33.1124 65.2608 34.4913 70.8232 35.6366 75.4431L36.1377 77.4616H36.1036L36.1829 77.6305C36.6586 78.5896 37.3579 79.0994 37.8833 79.3643V79.9956H34.3646V79.9989ZM6.39825 79.9989V79.9228C6.53371 79.8058 6.75948 79.5784 7.00177 79.201H7.04141L10.6173 67.8974C10.7253 67.5056 11.6382 64.0678 10.8376 62.877L10.6823 62.6452L10.4587 62.8151C10.3971 62.8615 9.83651 63.3041 9.09313 64.4066C9.04357 64.4806 8.99181 64.5589 8.94115 64.6384C8.89049 64.7167 8.83983 64.7984 8.78807 64.8823C8.61517 65.1648 8.44557 65.4672 8.28147 65.7806C8.16914 65.997 8.05681 66.2254 7.94668 66.4605C7.88831 66.5863 7.82884 66.7154 7.77047 66.849C7.74955 66.8975 7.72752 66.9472 7.7066 66.9969C7.68567 67.0454 7.66475 67.0951 7.64382 67.1448C7.42466 67.6657 7.21982 68.2153 7.0326 68.7781L4.04808 78.4505C4.03817 78.488 4.03156 78.5255 4.02496 78.5631C4.01505 78.6194 4.00954 78.6712 4.00513 78.7308C3.98641 78.999 4.00734 79.6402 4.59433 79.9581V79.9901H2.64062V79.8102C2.83225 79.6877 3.10427 79.4118 3.40713 78.7882C3.42585 78.7496 3.44567 78.7066 3.4644 78.6646C3.4644 78.6646 3.52497 78.5344 3.52937 78.5222L3.54259 78.4891C3.69787 78.1172 4.04258 77.1405 4.5668 75.5843C4.66481 75.2952 4.76393 74.9961 4.86635 74.6926L4.96436 74.3979C5.28044 73.4499 5.59981 72.4776 5.88285 71.6134L6.03923 71.1355C6.19011 70.6753 6.32557 70.2603 6.4379 69.9127L6.7771 68.8653V68.8598C6.78481 68.8289 6.94009 68.0851 6.95882 67.1911V67.1547C6.96102 67.1172 6.96102 67.0796 6.96102 67.0421C6.96102 67.0068 6.96102 66.9715 6.95992 66.9351V66.8931C6.95661 66.753 6.95111 66.6249 6.94119 66.5002C6.92688 66.3181 6.90375 66.136 6.87071 65.9594C6.83217 65.7531 6.7793 65.5588 6.71433 65.3811C6.66917 65.2597 6.62402 65.156 6.57666 65.0655L15.0523 59.811C14.2439 60.6123 13.2957 61.9377 12.5666 64.0932L7.8751 78.3655L7.81012 78.573C7.7936 78.6436 7.78259 78.7132 7.77708 78.7882C7.77267 78.8368 7.77157 78.8898 7.77378 78.9482C7.77488 78.999 7.78038 79.052 7.7903 79.1094L7.80571 79.2021H7.84316C7.86188 79.2495 7.8817 79.297 7.90483 79.3445C8.00505 79.5497 8.14381 79.7186 8.31672 79.8488V80H6.39605L6.39825 79.9989Z" fill="#EC268F"/>
<path d="M25.5316 52.7038L6.48242 64.5139V60.0883H10.544V58.3953H12.9195V56.8502H14.2994V55.3791H15.8313V54.4961H16.904V53.3186H18.3599V52.1465L21.6462 49.2715H29.417L32.7021 52.1465V53.3186H34.158V54.4961H35.2307V55.3791H36.7637V56.8502H38.1425V58.3953H40.518V60.0883H44.5796V64.5139L25.5316 52.7038Z" fill="#EC268F"/>
<path d="M0 79.9908V70.4851L1.50878 67.7822L2.99113 70.484V78.4457C2.99113 79.0052 2.15524 79.5935 2.14643 79.6001L2.09907 79.6332V79.9919H0V79.9908ZM2.1244 72.8071C1.81824 72.8071 1.56935 73.0841 1.56935 73.4241V75.6579H2.68056V73.4241C2.68056 73.0841 2.43167 72.8071 2.1244 72.8071ZM0.86562 72.8071C0.559459 72.8071 0.310566 73.0841 0.310566 73.4241V75.6579H1.42178V73.4241C1.42178 73.3832 1.41737 73.3413 1.41076 73.2994C1.3579 73.0146 1.12883 72.8071 0.866722 72.8071H0.86562ZM2.09907 71.688H2.67285V70.9894H2.3755V70.3328H2.07815V69.6772H1.7808V69.0216H1.20702V69.6772H0.909672V70.3328H0.612322V70.9894H0.314971V71.688H0.888748V71.0314H0.908571V71.688H1.48235V71.0314H1.50217V71.688H2.07595V71.0314H2.09577V71.688H2.09907ZM1.7819 70.9894V70.3758H1.80172V70.9894H1.7819ZM1.1883 70.9894V70.3758H1.20812V70.9894H1.1883ZM1.48565 70.3328V69.7191H1.50547V70.3328H1.48565Z" fill="#EC268F"/>
<path d="M5.03797 79.9907V79.6078L4.95868 79.5846C4.51816 79.4555 4.5556 78.7237 4.56221 78.6266L4.65252 78.3353H4.63049L5.45646 75.6589H6.23178V73.4251C6.23178 73.3622 6.22297 73.2982 6.20425 73.2364L6.54234 72.1416V78.4567L6.54455 78.4677C6.68001 79.1288 5.92782 79.5912 5.92121 79.5956L5.86835 79.6276V79.9907H5.03797Z" fill="#EC268F"/>
<path d="M45.4952 79.9908V75.627L46.3752 78.4788C46.6197 79.2701 45.906 79.7193 45.8752 79.738L45.8223 79.77V79.9908H45.4941H45.4952Z" fill="#EC268F"/>
</g>
</svg>
