<svg width="47" height="47" viewBox="0 0 47 47" fill="none" xmlns="http://www.w3.org/2000/svg">
<path d="M23.6842 46.1053C36.4158 46.1053 46.7369 35.7842 46.7369 23.0526C46.7369 10.321 36.4158 0 23.6842 0C10.9526 0 0.631592 10.321 0.631592 23.0526C0.631592 35.7842 10.9526 46.1053 23.6842 46.1053Z" fill="#3E6DC1"/>
<path d="M37.5959 25.9034V35.659H31.9401V26.5575C31.9401 24.2717 31.1231 22.7113 29.0758 22.7113C27.5132 22.7113 26.5846 23.7624 26.1747 24.7795C26.0256 25.1433 25.9875 25.6483 25.9875 26.1584V35.659H20.3309C20.3309 35.659 20.4065 20.2439 20.3309 18.6475H25.9875V21.058C25.9759 21.0774 25.9601 21.0955 25.95 21.1135H25.9875V21.058C26.7388 19.9018 28.0795 18.2477 31.085 18.2477C34.8065 18.2477 37.5959 20.6791 37.5959 25.9034ZM11.5493 35.659H17.2037V18.6475H11.5493V35.659ZM17.3722 12.875C17.3722 14.483 16.0691 15.7869 14.4604 15.7869C12.8525 15.7869 11.5486 14.4837 11.5486 12.875C11.5486 11.2671 12.8525 9.9632 14.4604 9.9632C16.0691 9.96392 17.3722 11.2671 17.3722 12.875Z" fill="white"/>
</svg>
