<svg width="47" height="47" viewBox="0 0 47 47" fill="none" xmlns="http://www.w3.org/2000/svg">
<path d="M23.3158 46.1053C36.0475 46.1053 46.3685 35.7842 46.3685 23.0526C46.3685 10.321 36.0475 0 23.3158 0C10.5842 0 0.263184 10.321 0.263184 23.0526C0.263184 35.7842 10.5842 46.1053 23.3158 46.1053Z" fill="#EC268F"/>
<path d="M29.6233 8.98395H17.1957C12.9791 8.98395 9.56055 12.4025 9.56055 16.6191V29.0467C9.56055 33.2633 12.9791 36.6819 17.1957 36.6819H29.6233C33.8399 36.6819 37.2585 33.2633 37.2585 29.0467V16.6191C37.2585 12.4025 33.8399 8.98395 29.6233 8.98395ZM35.0203 29.015C35.0203 32.0129 32.5895 34.4437 29.5916 34.4437H17.2275C14.2295 34.4437 11.7987 32.0129 11.7987 29.015V16.6509C11.7987 13.6529 14.2295 11.2221 17.2275 11.2221H29.5916C32.5895 11.2221 35.0203 13.6529 35.0203 16.6509V29.015Z" fill="white"/>
<path d="M23.4097 15.5332C19.3785 15.5332 16.1107 18.801 16.1107 22.8322C16.1107 26.8633 19.3785 30.1311 23.4097 30.1311C27.4408 30.1311 30.7086 26.8633 30.7086 22.8322C30.7086 18.8017 27.4408 15.5332 23.4097 15.5332ZM23.4097 27.5935C20.7804 27.5935 18.6491 25.4621 18.6491 22.8329C18.6491 20.2036 20.7804 18.0722 23.4097 18.0722C26.0389 18.0722 28.1703 20.2036 28.1703 22.8329C28.1703 25.4621 26.0389 27.5935 23.4097 27.5935Z" fill="white"/>
<path d="M32.5945 15.2909C32.5945 16.195 31.8614 16.9281 30.9573 16.9281C30.0533 16.9281 29.3202 16.195 29.3202 15.2909C29.3202 14.3869 30.0533 13.6538 30.9573 13.6538C31.8607 13.6531 32.5945 14.3861 32.5945 15.2909Z" fill="white"/>
</svg>
