<svg width="1040" height="370" viewBox="0 0 1040 370" fill="none" xmlns="http://www.w3.org/2000/svg">
<path d="M241.637 -30.4935C241.264 -33.4469 240.508 -36.3393 239.39 -39.0981C239.247 -39.6198 238.997 -40.1061 238.656 -40.5259C238.315 -40.9458 237.891 -41.2901 237.41 -41.5369C236.766 -41.7041 236.092 -41.7117 235.445 -41.5588L225.358 -40.0154C224.513 -39.9768 223.705 -39.6627 223.056 -39.1211C221.742 -37.7394 223.036 -35.5145 222.996 -33.6083C222.95 -31.4648 221.046 -29.725 218.981 -29.1493C216.873 -28.7234 214.698 -28.7503 212.601 -29.2284L198.496 -31.4204C202.65 -32.7466 206.348 -35.2141 209.167 -38.5411C211.023 -40.74 212.01 -44.8453 209.328 -45.8866C208.531 -46.1053 207.7 -46.172 206.878 -46.0833C200.487 -46.0336 195.458 -51.3693 189.476 -53.6165C185.647 -54.9618 181.49 -55.0619 177.601 -53.9025C173.712 -52.743 170.289 -50.3834 167.821 -47.1611L175.335 -46.7988C176.042 -46.8379 176.743 -46.6509 177.336 -46.2651C178.983 -44.9121 176.936 -42.3134 177.168 -40.1948C177.469 -37.4423 181.124 -36.8546 183.879 -36.5763C186.634 -36.298 190.129 -34.0596 188.804 -31.6284C174.957 -26.859 160.867 -40.9516 146.325 -39.2168C142.644 -38.7777 139.169 -37.3319 135.575 -36.4227C113.625 -30.8689 90.9315 -45.6871 68.5076 -42.5489C63.5225 -41.699 58.623 -40.4069 53.8672 -38.6877C50.8153 -37.6856 47.6319 -36.6026 45.4144 -34.2786C43.1969 -31.9546 42.3529 -27.9802 44.4537 -25.5501C38.6635 -25.0733 32.8346 -25.6274 27.2379 -27.1866C28.7514 -26.3453 30.0104 -25.1121 30.8829 -23.6164C31.7554 -22.1208 32.2092 -20.4178 32.1966 -18.6863C23.1559 -17.2121 14.3545 -14.5284 6.02934 -10.7075C7.58314 -8.12368 9.39798 -5.7061 11.4453 -3.49276L0 3.86024C3.86678 4.83449 5.866 10.1072 3.61733 13.4003C7.62674 11.6166 10.1116 7.00238 14.399 6.06688C17.2078 5.45399 20.0658 6.60302 22.7304 7.68242C25.395 8.76181 28.3237 9.80847 31.0821 8.99836C33.8405 8.18826 35.8751 4.61155 34.1223 2.33274C45.9125 -1.10724 58.0974 -3.01096 70.375 -3.3312C71.3222 -3.45007 72.2828 -3.26776 73.1206 -2.81014C74.7189 -1.70131 74.2984 0.693665 74.2123 2.63697C74.1262 4.58028 75.6408 7.1343 77.3776 6.25837C75.3342 8.03028 77.0811 11.366 79.0415 13.2293C81.0019 15.0926 83.3648 17.6637 82.1646 20.0874C81.8513 20.72 81.32 21.2262 81.0186 21.8645C80.129 23.7486 81.5415 25.9452 83.2076 27.1965C84.8737 28.4477 86.9146 29.3222 88.0719 31.0549C89.2293 32.7875 88.7037 35.8203 86.6341 36.0623L80.7518 28.5936C78.742 30.6776 77.3642 33.2886 76.7781 36.1238C83.0159 41.223 83.9541 51.6021 78.7319 57.7372C76.0633 60.8725 72.2682 62.7776 68.9559 65.223C65.6437 67.6685 62.5788 71.1508 62.5871 75.268C62.6015 82.3811 62.0203 88.9895 64.6858 95.5843C69.6009 107.744 75.2755 119.584 81.6762 131.032C83.357 134.038 85.5294 137.333 88.9344 137.85C84.6311 127.374 80.7573 116.735 77.3129 105.933C79.5563 105.942 82.1488 106.12 83.4639 107.937C84.5529 109.442 84.319 111.489 84.6574 113.315C85.0878 115.085 85.8054 116.772 86.7818 118.31L107.331 154.914C109.035 157.949 110.989 161.206 114.245 162.435C116.326 163.221 118.735 163.073 120.65 164.204C122.152 165.09 123.164 166.664 124.695 167.499C129.023 169.861 135.043 165.332 139.089 168.151C140.245 168.958 140.981 170.238 142.047 171.161C145.783 174.397 151.912 172.232 156.226 174.646C159.005 176.202 160.446 179.313 161.929 182.132C165.643 189.194 171.652 196.113 179.611 196.675C182.111 196.852 184.665 196.378 187.109 196.934C189.553 197.49 191.959 199.623 191.566 202.098C190.894 206.342 192.991 210.99 192.428 215.249C191.402 223.009 180.396 226.419 179.45 234.189C179.243 235.89 179.567 237.646 179.162 239.311C178.666 241.352 177.133 243.013 176.588 245.042C175.556 248.886 178.31 252.712 181.336 255.298C184.362 257.884 187.971 260.114 189.625 263.735C191.373 267.561 190.514 272.023 191.083 276.192C192.324 285.292 200.185 292.039 208.274 296.389C210.738 297.714 213.385 298.997 214.98 301.296C217.062 304.297 216.855 308.253 217.55 311.839C219.253 320.62 226.645 327.856 226.855 336.799C227.004 343.155 223.471 348.921 221.36 354.918C219.382 360.665 218.666 366.77 219.261 372.818C219.857 378.866 221.75 384.714 224.811 389.964C226.39 392.63 228.278 395.144 229.395 398.034C231.388 403.191 230.742 409.054 232.579 414.269C235.009 421.164 241.685 426.859 241.046 434.141C244.077 440.435 250.77 443.527 257.5 445.401L269.561 448.758C271.871 449.401 274.284 450.049 276.636 449.584C278.987 449.118 281.232 447.165 281.171 444.769C275.256 443.435 269.152 442.016 264.276 438.412C259.4 434.808 256.06 428.389 257.91 422.615C258.768 419.938 260.593 416.846 258.858 414.633C257.864 413.367 256.048 413.036 254.927 411.88C253.179 410.077 253.78 407.049 255.036 404.875C256.293 402.701 258.109 400.759 258.616 398.299C258.872 396.924 258.701 395.503 258.126 394.227C257.551 392.951 256.6 391.881 255.4 391.162C257.636 390.317 259.67 389.012 261.37 387.331C262.94 385.538 263.665 382.774 262.43 380.736C266.098 381.201 270.427 381.429 272.835 378.623C274.758 376.383 274.625 373.034 273.866 370.181C273.106 367.328 271.822 364.557 271.782 361.605C280.243 362.006 288.721 361.719 297.135 360.746C295.919 356.648 293.154 353.186 289.427 351.092C293.238 350.447 296.709 345.885 297.913 342.213C299.117 338.54 298.81 334.54 298.066 330.748C297.78 329.771 297.741 328.739 297.952 327.744C298.381 326.377 299.724 325.542 300.967 324.828L319.882 313.966C321.01 313.4 322.033 312.645 322.906 311.733C324.888 309.405 324.594 305.891 323.58 303.008C322.565 300.124 320.94 297.412 320.549 294.38C319.38 285.313 329.086 278.807 332.362 270.271C333.648 266.922 333.91 263.281 334.159 259.701C334.426 255.857 334.446 251.392 331.494 248.914C328.664 246.54 324.243 247.069 321.283 244.86C318.568 242.835 317.632 238.902 314.666 237.266C311.973 235.781 308.597 236.726 305.601 236.027C300.328 234.797 297.009 228.719 291.623 228.156C288.584 227.839 285.145 229.324 282.654 227.554C280.46 225.995 280.372 222.861 279.954 220.201C279.222 216.068 277.241 212.258 274.277 209.285C271.314 206.312 267.511 204.318 263.379 203.573C260.246 203.07 256.836 203.261 254.17 201.539C251.471 199.796 250.234 196.532 248.114 194.117C244.697 190.226 239.315 188.843 234.274 187.658L213.769 182.837C210.129 181.982 205.436 181.528 203.483 184.717C202.905 185.931 202.495 187.218 202.266 188.543C201.534 190.94 200.061 193.043 198.059 194.551C196.057 196.058 193.628 196.891 191.122 196.931C189.404 194 186.619 191.846 183.35 190.918C181.271 190.339 179.046 190.274 177.062 189.422C175.982 188.895 175.021 188.153 174.238 187.241C173.455 186.33 172.866 185.268 172.507 184.121C172.148 182.974 172.027 181.766 172.152 180.57C172.276 179.375 172.643 178.218 173.23 177.169C174.412 175.064 174.869 172.629 174.529 170.239C174.19 167.848 173.073 165.636 171.351 163.944C167.864 160.813 162.82 160.057 158.144 160.37C156.919 157.698 158.967 154.683 161.173 152.741C163.38 150.799 166.059 148.89 166.54 145.99C167.296 141.429 161.475 137.964 157.056 139.325C152.637 140.685 149.817 144.977 147.952 149.208C146.883 151.636 145.973 154.192 144.286 156.239C142.598 158.286 139.881 159.752 137.311 159.095C133.672 158.165 132.267 153.842 131.461 150.173C130.381 145.251 129.294 140.261 129.52 135.228C129.747 130.194 131.444 125.025 135.156 121.617C141.204 116.064 150.484 116.608 158.647 117.494C156.718 115.321 157.195 111.659 159.259 109.614C160.348 108.646 161.657 107.958 163.072 107.611C164.487 107.263 165.966 107.266 167.379 107.619C169.839 108.131 172.055 109.456 173.671 111.38C175.99 114.209 176.65 118.027 178.403 121.238C180.157 124.448 184.1 127.186 187.327 125.464C190.114 123.976 190.557 120.111 189.863 117.029C189.169 113.946 187.696 110.949 187.947 107.799C188.426 101.79 194.656 98.1723 200.153 95.6973C205.651 93.2223 211.945 89.8938 212.816 83.9283C212.846 82.7603 213.066 81.6049 213.469 80.508C214.078 79.5391 214.925 78.7423 215.93 78.1933C231.974 67.5904 248.285 56.8581 266.622 51.0645C267.576 50.7631 267.688 51.0981 268.66 50.862C270.021 50.0755 269.12 47.8999 267.815 47.0235C266.51 46.1471 264.766 45.475 264.435 43.9386C264.192 42.8091 264.858 41.7002 265.03 40.5578C265.455 37.7508 262.097 35.1592 259.489 36.2814C258.016 34.3306 260.931 32.0639 263.288 31.4151C270.365 29.4674 277.629 28.2807 284.958 27.875C285.804 27.7406 286.67 27.888 287.424 28.2945C288.655 29.1471 288.498 31.1028 287.625 32.3199C286.753 33.5369 285.396 34.3011 284.309 35.3309C283.121 36.4879 282.274 37.949 281.86 39.5546C281.446 41.1602 281.481 42.8487 281.961 44.4359C285.787 46.3821 289.946 48.3855 294.184 47.6999C298.421 47.0143 302.182 42.2531 300.191 38.4506C298.336 34.9096 292.764 34.111 291.806 30.2301C290.685 25.6863 297.117 21.6451 295.668 17.1948C295.033 15.2455 293.09 14.0982 291.6 12.6908C289.839 10.9653 288.642 8.74763 288.164 6.32911C287.687 3.9106 287.952 1.40429 288.925 -0.860737C286.497 -0.433575 284.002 -0.594921 281.649 -1.33123C279.296 -2.06753 277.154 -3.35732 275.403 -5.09243C272.168 -8.35668 269.588 -13.506 264.995 -13.3599C260.78 -13.2259 257.149 -8.30861 253.208 -9.8088C252.239 -10.1779 251.216 -10.929 250.277 -10.4889C249.969 -10.289 249.711 -10.0218 249.521 -9.70732C249.332 -9.3929 249.216 -9.03952 249.184 -8.67391C248.182 -3.88552 249.905 1.57025 247.295 5.70799C244.455 10.2107 237.886 10.8349 234.444 14.8952C232.575 17.0993 231.851 20.0693 230.133 22.393C228.415 24.7167 224.769 26.1941 222.707 24.1691C223.72 22.0861 223.997 19.7211 223.492 17.4606C222.987 15.2 221.73 13.1777 219.927 11.724C218.013 10.4752 215.95 9.47169 213.786 8.73686C211.368 7.71332 209.067 6.43128 206.925 4.91313C205.852 4.26576 204.98 3.33271 204.406 2.21821C203.953 0.822693 204.014 -0.68911 204.578 -2.04348C205.624 -5.0406 207.468 -7.69528 209.912 -9.72087C212.356 -11.7465 215.307 -13.066 218.446 -13.5372C221.19 -13.9106 224.385 -13.779 226.202 -15.8704C227.163 -16.9771 227.667 -18.6501 229.062 -19.0996C229.955 -19.2789 230.881 -19.1648 231.703 -18.7743L241.949 -15.1681C243.092 -14.6521 244.35 -14.444 245.598 -14.5645C246.217 -14.6479 246.782 -14.9623 247.179 -15.4446C247.576 -15.9269 247.775 -16.5415 247.738 -17.165C247.411 -18.8664 244.793 -19.6828 245.031 -21.3989C245.164 -21.9551 245.463 -22.4577 245.888 -22.8403C249.586 -26.7757 254.108 -29.8449 259.13 -31.8282C264.152 -33.8115 269.551 -34.6599 274.94 -34.3125C276.233 -32.1887 274.188 -29.6738 272.486 -27.8608C270.784 -26.0477 269.417 -22.8083 271.475 -21.4127C272.318 -20.9823 273.256 -20.771 274.203 -20.7984C276.725 -20.4569 279.176 -19.7134 281.463 -18.5961C285.004 -17.0554 288.476 -15.3696 291.881 -13.5388C291.58 -15.7835 291.293 -18.1483 292.144 -20.2472C292.995 -22.3461 295.413 -23.9923 297.525 -23.1749C299.56 -22.3872 300.604 -19.6919 302.773 -19.445C305.666 -19.1156 306.807 -23.3892 305.599 -26.0381C304.39 -28.687 301.998 -30.9051 301.798 -33.8097C301.664 -35.7693 302.409 -38.1996 300.844 -39.3862C300.287 -39.7424 299.655 -39.9642 298.997 -40.0338L259.914 -47.2259C257.593 -47.653 254.239 -47.3257 254.136 -44.9681C254.079 -43.6521 255.255 -42.3501 254.734 -41.1402C254.178 -39.8488 252.353 -39.9669 251.023 -39.5101C248.96 -38.8014 247.925 -36.3517 248.123 -34.1793C248.486 -32.0207 249.322 -29.9691 250.571 -28.1718C248.029 -29.2349 244.179 -29.4304 241.637 -30.4935Z" fill="white" fill-opacity="0.2"/>
<path d="M606.069 315.118C605.204 317.621 605.122 320.57 606.617 322.755C608.295 325.207 611.654 326.121 614.559 325.499C617.453 324.729 620.032 323.071 621.933 320.758C623.672 318.821 625.102 316.627 626.174 314.254C627.67 310.557 628.725 306.696 629.318 302.752L632.137 287.948C632.767 284.639 632.743 274.496 626.662 277.801C625.001 278.704 621.154 285.832 619.413 287.853C616.275 291.497 615.86 295.032 614.208 299.445C612.139 304.974 607.981 309.581 606.069 315.118Z" fill="white" fill-opacity="0.2"/>
<path d="M1030.81 374.719C1030.98 373.006 1030.75 371.278 1030.15 369.666C1029.55 368.054 1028.58 366.599 1027.34 365.413C1027.3 368.84 1027.2 372.492 1025.27 375.326C1023.9 377.346 1021.74 378.71 1020.24 380.634C1018.73 382.557 1018.06 385.607 1019.83 387.295C1020.96 388.153 1022.33 388.626 1023.75 388.645C1027.26 389.058 1031.33 389.289 1033.79 386.75C1035.14 385.365 1035.79 383.313 1037.43 382.294C1038.05 382.037 1038.59 381.647 1039.03 381.151C1039.71 380.074 1038.63 378.655 1037.42 378.267C1036.21 377.879 1034.87 378.062 1033.66 377.693C1032.44 377.325 1031.32 375.955 1031.95 374.847" fill="white" fill-opacity="0.2"/>
<path d="M974.408 249.048C972.565 249.496 970.656 249.609 968.772 249.38C965.644 248.805 963.209 246.448 960.684 244.514C954.68 239.943 947.382 237.393 939.838 237.231C932.976 237.102 926.049 238.961 919.309 237.664C919.749 240.113 921.845 241.95 924.082 243.042C926.318 244.134 928.786 244.683 931.033 245.753C934.631 247.483 937.485 250.452 939.072 254.116C939.796 255.806 940.251 257.644 941.347 259.119C943.588 262.134 947.835 262.796 951.583 262.549C956.47 262.228 961.573 260.822 966.12 262.643C969.598 264.036 972.087 267.08 974.991 269.447C977.895 271.814 981.985 273.57 985.319 271.862C981.856 270.741 978.841 268.542 976.716 265.586C974.59 262.631 973.465 259.073 973.505 255.433C976.775 255.733 986.195 255.617 985.688 250.06C985.258 245.35 977.216 248.54 974.408 249.048Z" fill="white" fill-opacity="0.2"/>
<path d="M931.625 287.365C932.206 284.181 935.382 281.368 934.393 278.286C933.708 276.154 931.237 275.102 928.998 275.049C926.76 274.996 924.561 275.663 922.324 275.726C920.867 275.649 919.407 275.669 917.953 275.788C913.51 276.518 910.772 281.175 906.585 282.83C904.04 283.837 901.18 283.644 898.532 284.34C892.522 285.92 888.72 291.599 884.519 296.178C877.731 303.543 868.888 308.7 859.135 310.982C855.718 311.773 852.044 312.279 849.328 314.498C845.731 317.437 844.846 322.475 844.046 327.051C841.835 339.687 838.456 352.09 833.953 364.102L848.223 365.924C850.936 366.27 853.747 366.609 856.362 365.805C858.261 365.089 860.061 364.13 861.715 362.954C868.071 359.008 875.184 356.44 882.595 355.417C886.332 354.904 890.25 354.81 893.757 356.199C897.264 357.588 900.272 360.738 900.566 364.499C902.083 364.027 903.699 363.976 905.242 364.351C906.785 364.727 908.198 365.514 909.328 366.63C911.563 368.907 913.026 371.828 913.511 374.981C913.887 376.933 914.263 379.272 916.075 380.091C917.553 380.76 919.249 380.04 920.865 379.911C926.352 379.472 930.905 385.869 936.297 384.767C942.081 383.586 943.501 374.924 949.143 373.189C952.383 372.193 956.929 373.404 958.481 370.39C959.848 367.733 957.12 364.667 957.401 361.692C957.747 358.029 962.068 356.474 965.4 354.911C976.884 349.523 982.333 334.066 976.768 322.667C973.471 315.913 966.983 310.596 965.785 303.176C964.863 297.467 967.114 290.81 963.474 286.317C961.623 284.031 958.488 282.769 957.386 280.041C956.692 278.324 956.971 276.376 956.598 274.563C956.225 272.749 954.642 270.852 952.851 271.322C947.652 272.687 945.993 288.747 943.21 292.649C938.979 298.581 930.293 294.674 931.625 287.365Z" fill="white" fill-opacity="0.2"/>
<path d="M835.531 255.116C833.754 254.618 831.814 254.128 830.112 254.839C828.409 255.551 827.415 258.051 828.782 259.291C839.47 258.874 850.224 258.461 860.822 259.913C873.032 261.585 885.116 265.728 897.379 264.509C890.374 262.442 883.253 260.79 876.053 259.56L864.047 257.267C860.827 256.592 857.572 256.089 854.298 255.76C847.449 255.195 842.265 257.005 835.531 255.116Z" fill="white" fill-opacity="0.2"/>
<path d="M846.231 217.89C845.344 217.816 844.245 217.752 843.786 218.515C843.347 219.244 843.849 220.207 843.613 221.025C843.291 222.141 841.829 222.427 840.676 222.275C839.524 222.123 838.278 221.759 837.257 222.314C836.739 222.668 836.35 223.18 836.148 223.773C835.946 224.367 835.942 225.01 836.137 225.606C836.554 226.79 837.229 227.866 838.113 228.756C839.623 230.659 841.343 232.384 843.241 233.9C846.914 236.611 851.891 237.918 854.205 241.854C854.531 242.617 855.033 243.293 855.669 243.825C856.78 244.529 858.228 243.994 859.424 243.447L863.616 241.532C864.371 241.26 865.045 240.801 865.576 240.199C866.534 238.899 865.945 237.052 865.142 235.652C864.338 234.252 863.309 232.803 863.481 231.198C863.789 228.337 867.468 227.242 868.981 224.793C870.506 222.325 869.513 219.146 869.689 216.249C869.895 212.863 872.023 208.457 868.599 205.927C865.689 203.776 862.908 205.763 860.819 208.138C856.413 213.144 854.33 218.567 846.231 217.89Z" fill="white" fill-opacity="0.2"/>
<path d="M871.677 167.287C873.108 170.028 876.091 171.663 877.652 174.332C879.344 177.224 879.151 180.961 880.986 183.765C882.869 186.642 886.658 188.169 887.714 191.441C888.866 195.012 886.251 199.354 888.336 202.475C888.725 202.985 889.215 203.409 889.776 203.72C890.338 204.03 890.957 204.221 891.596 204.28C892.235 204.338 892.879 204.264 893.487 204.06C894.095 203.857 894.655 203.53 895.13 203.099C896.009 202.142 896.48 200.879 896.441 199.581C896.403 198.282 895.859 197.049 894.925 196.146C893.69 195.02 891.918 194.534 890.887 193.219C890.35 192.46 889.993 191.59 889.841 190.673C889.279 188.028 889.369 185.286 890.103 182.684C890.379 182.023 890.449 181.295 890.304 180.594C889.84 179.245 888.014 179.149 886.732 178.524C883.821 177.103 883.892 172.994 884.4 169.795C884.062 171.925 876.475 168.302 875.68 167.096C874.102 164.699 874.961 160.075 874.648 157.427C871.241 159.069 869.927 163.937 871.677 167.287Z" fill="white" fill-opacity="0.2"/>
<path d="M795.24 209.449C793.839 207.882 791.73 206.242 789.853 207.187C788.42 207.908 788.026 209.89 788.588 211.393C789.272 212.852 790.325 214.107 791.643 215.035C795.555 218.261 799.768 221.174 803.182 224.925C809.29 231.637 812.526 240.695 819.169 246.879C820.504 248.313 822.272 249.27 824.203 249.603C826.138 249.783 828.312 248.545 828.534 246.614C828.717 245.023 827.608 243.599 826.525 242.42C823.944 239.614 821.119 237.03 818.683 234.097C817.558 232.97 816.851 231.494 816.678 229.911C816.666 228.332 818.106 226.679 819.636 227.07C817.775 226.594 816.395 223.494 813.664 222.911C811.382 222.424 810.83 223.837 808.113 222.672C802.932 220.45 798.868 213.511 795.24 209.449Z" fill="white" fill-opacity="0.2"/>
<path d="M916.972 56.8029C915.486 56.3613 914.025 55.8393 912.595 55.2395C908.748 54.0848 903.659 56.9122 904.172 60.8955C904.512 63.542 906.975 65.3264 908.336 67.622C910.353 71.0264 909.815 75.3444 908.755 79.1569C908.495 80.3374 908 81.4535 907.3 82.4389C906.321 83.4792 905.15 84.3211 903.853 84.9184C898.658 87.8314 894.077 91.7232 890.363 96.3788C889.959 96.8088 889.678 97.339 889.548 97.9145C889.365 99.2594 890.717 100.239 891.481 101.361C893.179 103.852 891.952 107.205 892.119 110.216C892.094 110.641 892.177 111.067 892.362 111.451C892.546 111.836 892.826 112.166 893.174 112.412C894.198 112.932 895.41 112.049 895.965 111.044C897.805 107.71 896.419 102.357 899.872 100.749C900.525 100.445 901.317 100.317 901.753 99.743C902.444 98.8328 901.777 97.4851 902.127 96.3972C902.653 94.7637 904.887 94.6904 906.602 94.7628C909.555 94.8863 912.508 94.4933 915.326 93.6013C916.432 93.3385 917.436 92.757 918.214 91.929C919.246 90.6408 919.155 88.8091 918.949 87.1713C917.915 79.0063 915.329 71.1144 911.329 63.9217C914.362 64.3091 917.662 64.6447 920.279 63.064C921.745 62.1788 923.503 59.5318 922.776 57.7302C921.626 54.881 919.55 57.2792 916.972 56.8029Z" fill="white" fill-opacity="0.2"/>
<path d="M528.123 101.71C528.486 103.656 528.843 105.706 528.205 107.581C527.567 109.456 525.56 111.022 523.664 110.448C522.193 110.002 521.344 108.523 520.299 107.396C514.491 101.125 501.387 104.756 497.799 96.9982C496.335 93.8322 497.33 90.0392 496.331 86.6971C495.701 84.7655 494.447 83.0979 492.767 81.9562C491.086 80.8144 489.074 80.2633 487.046 80.3892C485.196 80.6564 483.396 81.1938 481.703 81.9842C470.358 86.5275 458.449 89.5063 446.302 90.8385C443.993 90.9792 441.709 91.3947 439.499 92.0762C434.512 93.8845 431.104 98.5086 428.678 103.227C426.253 107.946 424.462 113.054 421.211 117.247C417.793 121.653 413.005 124.738 408.538 128.075C406.817 129.184 405.384 130.686 404.357 132.457C403.389 134.445 403.443 136.757 403.518 138.967L404.431 165.811C404.549 169.264 404.696 172.84 406.241 175.93C408.171 179.788 411.983 182.315 414.628 185.724C417.327 189.227 418.733 193.554 418.608 197.974C418.551 199.752 418.375 201.853 419.759 202.97C420.601 203.515 421.586 203.799 422.589 203.784L458.901 206.755C465.288 207.278 472.367 208.138 476.537 213.004C478.505 215.301 480.087 218.604 483.101 218.85C484.394 218.956 485.652 218.425 486.946 218.323C490.209 218.064 493.075 220.541 494.884 223.269C497.623 227.427 498.865 232.392 498.409 237.349C498.112 240.461 497.148 243.486 496.94 246.605C496.148 258.473 506.209 268.784 506.404 280.676C506.518 287.672 503.198 294.208 499.96 300.41C505.185 308.326 500.907 318.867 502.987 328.121C504.961 336.9 512.281 343.773 514.105 352.585C514.94 356.619 514.988 361.584 518.546 363.662C520.107 364.422 521.837 364.769 523.57 364.668C534.027 364.791 544.363 362.438 553.735 357.8C558.134 355.617 562.693 352.359 563.461 347.509C564.08 343.598 562.097 339.223 564.115 335.816C566.494 331.801 572.589 332.119 576.089 329.032C581.768 324.024 577.34 314.472 579.641 307.259C581.709 300.775 588.828 297.33 592.357 291.51C593.746 289.007 594.742 286.306 595.312 283.501C596.929 276.797 597.935 269.961 598.318 263.075C598.413 258.892 598.721 254.716 599.243 250.564C603.047 226.926 626.416 211.098 634.003 188.39C634.727 186.221 635.068 183.332 633.138 182.105C631.994 181.559 630.697 181.424 629.464 181.721L612.725 183.831C610.646 184.093 608.443 184.338 606.533 183.475C604.624 182.611 603.255 180.196 604.268 178.361C607.111 173.211 601.263 166.704 598.665 161.426C591.668 147.216 583.335 133.703 573.78 121.07C573.169 120.42 572.786 119.588 572.689 118.701L577.44 118.859C575.836 113.105 573.19 106.808 567.599 104.703C564.449 103.517 560.961 103.927 557.599 104.11C547.972 104.636 537.651 103.183 528.123 101.71Z" fill="white" fill-opacity="0.2"/>
<path d="M557.607 -27.9665C560.126 -25.2912 562.949 -22.4547 566.594 -21.9885C573.032 -21.1648 577.661 -27.8223 580.608 -33.605C580.717 -32.1308 581.397 -30.7573 582.504 -29.7766C583.61 -28.7959 585.055 -28.2855 586.531 -28.3538C588.121 -28.6212 589.637 -29.2142 590.986 -30.0955C603.742 -37.0663 618.029 -40.7598 632.565 -40.844C632.426 -41.9452 632.699 -43.059 633.332 -43.9706C633.965 -44.8821 634.914 -45.5269 635.994 -45.7804C638.95 -46.3663 641.612 -43.8112 643.038 -41.1569C644.463 -38.5026 645.352 -35.4261 647.617 -33.4393C649.883 -31.4526 654.268 -31.5391 655.163 -34.4161C656.022 -37.1782 653.144 -39.5337 650.753 -41.1621C648.363 -42.7906 645.843 -45.8046 647.453 -48.2077C659.666 -50.9112 671.955 -53.625 684.453 -54.1623C686.58 -54.0883 688.701 -54.4535 690.681 -55.2352C692.587 -56.1705 694.102 -58.2935 693.589 -60.3537C690.862 -59.7126 688.005 -59.8983 685.384 -60.887C682.763 -61.8758 680.495 -63.6228 678.871 -65.9053C696.212 -67.3363 714.656 -68.556 730.024 -60.3964C731.868 -56.4374 722.469 -53.1435 724.984 -49.5727C725.786 -48.4338 727.393 -48.3003 728.786 -48.2744C739.465 -48.0761 750.206 -47.8817 760.765 -49.4941C764.624 -50.0833 768.521 -50.9151 772.395 -50.4373C778.848 -49.6414 784.367 -45.336 790.715 -43.9322C793.299 -43.3609 796.196 -43.3415 798.374 -44.8444C800.553 -46.3472 801.489 -49.7692 799.704 -51.7228C805.681 -57.5809 815.601 -56.129 823.487 -53.3245C831.372 -50.5199 838.842 -45.997 847.188 -45.3719C853.173 -44.9236 859.24 -46.5334 865.154 -45.5102C868.87 -44.8672 872.329 -43.214 875.961 -42.1983C882.83 -40.2773 890.097 -40.6828 897.229 -40.5903C915.427 -40.3452 933.426 -36.7686 950.335 -30.0378C952.535 -29.3216 954.55 -28.1309 956.239 -26.5498C957.812 -24.865 958.614 -22.2468 957.557 -20.1984L940.084 -22.7514C941.73 -19.5106 945.989 -18.9583 949.448 -17.8403C952.907 -16.7223 956.493 -12.9027 954.414 -9.92071C950.667 -11.1139 947.271 -7.36713 945.378 -3.91976C943.485 -0.472389 941.178 3.65625 937.251 3.86625C933.734 4.05431 929.48 1.05978 927.188 3.73347C930.355 7.72865 933.067 12.0643 935.274 16.6601C937.538 21.3782 939.151 27.3232 936.09 31.5682C935.609 32.326 934.878 32.8924 934.025 33.1702C931.525 33.803 929.9 30.7448 928.108 28.8912C925.848 26.5554 922.432 25.8938 919.373 24.7983C916.313 23.7028 913.091 21.5478 912.851 18.3071C912.702 16.2908 913.767 14.4164 914.551 12.5529C915.869 9.4118 916.445 6.00924 916.235 2.60932C916.064 -0.125931 915.297 -2.9712 913.332 -4.88232C911.368 -6.79344 907.976 -7.3997 905.868 -5.64931C904.884 -4.83258 904.095 -3.52617 902.817 -3.47732C900.559 -3.39094 898.826 -7.32732 897.009 -5.9836C897.222 -4.55186 896.926 -3.09075 896.171 -1.85571C890.75 2.85867 882.423 0.864212 875.434 2.52958C872.111 3.48058 868.93 4.87001 865.974 6.66117C864.868 7.13403 863.927 7.92387 863.27 8.93101C862.397 10.6262 863.359 12.7972 864.897 13.9243C866.527 14.9244 868.359 15.5498 870.261 15.7554C878.781 17.3689 887.424 19.8667 894.151 25.3388C900.877 30.811 905.288 39.8567 903.159 48.2624L886.358 32.2088C886.996 38.9493 887.359 45.7085 887.445 52.4862C887.553 53.8096 887.371 55.1407 886.912 56.3865C885.714 59.0319 882.468 59.9221 879.623 60.5061C878.832 60.6565 878.082 60.9725 877.421 61.4334C876.761 61.8943 876.206 62.4898 875.792 63.1806C875.378 63.8715 875.115 64.6421 875.02 65.4418C874.925 66.2416 875 67.0523 875.241 67.8209C876.251 71.1152 878.771 73.6836 881.079 76.2428C883.386 78.802 885.657 81.7107 885.959 85.1433C886.261 88.5759 883.671 92.445 880.234 92.2063C877.628 92.0254 875.695 89.6925 874.583 87.3286C873.471 84.9646 872.81 82.3313 871.14 80.3227C866.085 74.2431 854.731 76.8479 850.203 70.3666C849.048 71.6759 848.248 73.2587 847.877 74.9644C847.506 76.6701 847.578 78.4422 848.085 80.1126C850.191 78.7937 853.076 80.0191 854.658 81.9354C856.241 83.8517 856.988 86.3085 858.231 88.4608C859.908 91.3651 862.578 93.9399 862.812 97.2856C862.75 98.5507 862.771 99.8185 862.876 101.081C863.292 103.108 865.005 104.564 866.193 106.258C868.957 110.201 868.821 115.617 867.039 120.091C865.257 124.564 862.056 128.302 858.886 131.926C853.348 138.256 847.697 144.549 841.132 149.806C839.259 151.306 837.26 152.781 836.093 154.878C834.926 156.975 834.866 159.919 836.659 161.514C835.376 161.578 833.076 162.209 831.793 162.273C831.342 157.127 831.244 151.956 831.499 146.796C826.437 144.365 820.986 150.875 821.639 156.453C822.292 162.031 826.327 166.507 829.199 171.333C831.299 174.862 832.861 178.977 832.159 183.023C831.458 187.07 827.846 190.803 823.755 190.446C817.247 189.878 814.525 180.536 808.081 179.467C807.512 179.333 806.916 179.392 806.385 179.635C805.428 180.16 805.262 181.44 805.208 182.53C804.944 187.879 804.716 193.441 806.804 198.373C809.859 205.588 817.751 211.647 816.095 219.305C807.177 215.16 802.541 205.159 800.436 195.553C798.33 185.947 797.979 175.862 794.206 166.781C791.34 170.453 785.317 167.417 782.699 163.564C780.217 159.911 778.689 155.686 776.281 151.984C773.872 148.282 770.183 144.967 765.772 144.763C761.146 144.55 757.135 147.724 753.607 150.723C750.706 153.189 747.727 155.752 746.032 159.162C743.564 164.122 744.21 169.971 744.091 175.51C743.962 181.499 742.693 187.817 738.612 192.201C734.53 196.586 726.996 198.113 722.494 194.161C720.144 192.099 719.006 189.017 717.992 186.058C713.106 171.798 709.037 157.271 705.804 142.547C705.048 145.908 702.097 150.239 699.278 148.26C698.645 147.727 698.133 147.067 697.774 146.322C692.516 137.41 682.778 132.065 672.939 128.859C663.1 125.654 652.749 124.159 643.019 120.636C637.566 118.662 632.359 116.068 627.498 112.905C626.259 114.726 625.535 116.847 625.404 119.046C625.272 121.244 625.738 123.437 626.752 125.392C628.91 129.213 633.794 131.424 637.975 130.089C640.135 129.398 641.96 127.899 644.103 127.158C646.247 126.417 649.124 126.781 650.062 128.846C650.959 130.823 649.603 133.214 650.276 135.279C651.3 138.422 656.042 138.664 657.699 141.525C658.933 143.654 657.918 146.48 656.157 148.198C654.395 149.915 652.045 150.857 649.895 152.053C642.919 155.932 637.958 162.554 631.861 167.706C625.765 172.859 617.163 176.62 609.897 173.315C611.629 164.545 601.182 158.106 599.26 149.376C598.627 146.502 598.955 143.45 598.052 140.65C596.745 136.595 593.148 133.807 590.197 130.735C586.617 126.968 583.829 122.522 581.996 117.66C580.163 112.797 579.322 107.617 579.524 102.425C579.683 98.8165 580.346 95.1496 579.524 91.6326C578.702 88.1157 575.79 84.7117 572.182 84.8711C563.941 85.2351 553.559 85.8481 549.235 78.8229C547.692 76.3156 547.021 72.6434 549.252 70.7224C550.826 69.3673 553.149 69.4949 555.216 69.6983L573.784 71.5249C578.127 71.9521 582.822 72.3047 586.548 70.0343C590.275 67.7639 591.89 61.7373 588.439 59.0662C585.918 57.1145 581.4 57.2203 580.667 54.1172C580.057 51.5328 582.917 48.6004 581.372 46.4406C580.265 44.892 577.774 45.3216 576.265 46.4826C574.756 47.6435 573.661 49.3413 571.972 50.2203C569.009 51.7623 565.469 50.2948 562.281 49.2974C559.093 48.3 554.82 48.2153 553.273 51.176C551.544 54.4872 554.807 58.826 553.091 62.1439C550.822 66.5307 543.138 64.0334 539.952 67.8067C536.296 72.1366 542.44 78.593 541.207 84.1244C539.633 84.904 537.883 85.2621 536.129 85.1635C534.375 85.065 532.677 84.5132 531.2 83.5621C529.747 82.574 528.589 81.2106 527.849 79.6169C527.11 78.0233 526.816 76.2589 526.999 74.5116C527.304 72.0233 528.602 69.4832 527.732 67.1318C527.03 65.2306 525.121 64.0988 523.347 63.1184L505.302 53.1473C503.627 56.2551 505.745 60.1078 508.394 62.442C511.043 64.7763 514.36 66.5343 516.1 69.6063C517.201 71.7346 517.448 74.2029 516.79 76.507C516.133 78.8111 514.62 80.7773 512.562 82.004C512.304 82.1821 512.01 82.3021 511.702 82.356C511.393 82.4099 511.076 82.3962 510.773 82.316C510.485 82.1468 510.234 81.9216 510.035 81.6537C509.836 81.3857 509.692 81.0805 509.613 80.7561C506.429 72.6087 501.649 64.5758 494.007 60.3197C486.365 56.0637 475.384 56.9387 470.373 64.1083C469.183 65.8112 468.384 67.7523 467.347 69.5527C461.838 79.118 450.027 83.6476 438.993 83.3517C437.914 83.4114 436.84 83.1591 435.9 82.6248C434.117 81.3932 434.197 78.7797 434.47 76.6296L435.628 67.5053C435.861 65.6731 436.198 63.6479 437.648 62.5042C439.692 60.8919 442.641 61.9094 445.244 61.8719C447.216 61.7796 449.113 61.083 450.676 59.8767C452.239 58.6704 453.393 57.0127 453.982 55.1283C454.508 53.2253 454.505 51.2148 453.972 49.3136C453.44 47.4123 452.399 45.6924 450.962 44.339C449.769 43.2184 448.167 41.8106 448.797 40.2999C449.049 39.882 449.389 39.5243 449.793 39.2519C450.198 38.9795 450.657 38.799 451.139 38.7231C455.815 37.3652 460.756 37.0093 465.354 35.407C469.952 33.8048 474.411 30.5267 475.5 25.7807C475.834 24.3263 475.986 22.5645 477.292 21.8434C477.948 21.5666 478.652 21.4228 479.363 21.4203C481.856 21.0656 484.126 19.7906 485.726 17.8462C487.326 15.9019 488.14 13.429 488.008 10.9145C490.211 9.37471 493.299 10.5074 495.43 12.1451C497.562 13.7829 499.444 15.9466 502.038 16.6526C506.873 17.9683 511.544 13.6881 516.554 13.6683C518.661 13.66 520.842 14.4049 522.824 13.6906C524.833 12.9665 526.033 10.9663 527.575 9.48862C529.118 8.01093 531.823 7.10963 533.247 8.70148L532.035 -0.28051C534.477 0.336418 537.023 0.423737 539.501 -0.0243759C541.98 -0.472488 544.334 -1.44569 546.405 -2.87862L530.733 -8.17394C530.188 -8.31018 529.684 -8.57937 529.268 -8.95751C528.129 -10.1844 529.26 -12.0963 530.187 -13.491C532.403 -16.8274 532.775 -22.3233 529.13 -23.9843C526.643 -25.1181 523.787 -23.7572 521.399 -22.4257L509.96 -16.0478C509.597 -13.8735 512.256 -12.6413 513.903 -11.1767C514.9 -10.2906 515.606 -9.12371 515.927 -7.82931C516.249 -6.5349 516.171 -5.1735 515.705 -3.92394C515.239 -2.67439 514.405 -1.59512 513.314 -0.827873C512.223 -0.0606232 510.926 0.358734 509.592 0.375069C510.345 1.35435 510.869 2.4905 511.123 3.69944C511.378 4.90838 511.357 6.15912 511.063 7.35905L503.367 7.91257C502.503 8.08635 501.606 7.91119 500.871 7.42536C500.048 6.69431 500.159 5.41325 499.969 4.32902C499.508 1.7121 496.946 -0.122047 494.331 -0.592339C491.715 -1.06263 489.04 -0.459808 486.45 0.135414C485.351 0.531105 484.143 0.503227 483.063 0.0572281C482.444 -0.345146 481.973 -0.939209 481.723 -1.63421C480.588 -4.38696 481.649 -7.62255 483.472 -9.97665C485.296 -12.3307 487.792 -14.0516 490.034 -16.0114C495.395 -20.7153 499.333 -26.8245 501.405 -33.649C505.642 -35.4242 510.028 -37.8361 514.265 -39.6112C520.797 -42.9183 528.122 -44.3375 535.416 -43.7093L549.764 -43.4353C554.012 -43.3541 558.375 -43.2501 562.303 -41.6307C566.231 -40.0112 569.683 -36.5084 569.954 -32.2683C570.036 -31.7883 569.994 -31.2954 569.833 -30.8358C569.672 -30.3762 569.397 -29.965 569.034 -29.6409C568.479 -29.3381 567.851 -29.1965 567.22 -29.232C563.258 -29.0928 561.569 -28.1056 557.607 -27.9665Z" fill="white" fill-opacity="0.2"/>
<path d="M443.244 17.0012C443.804 16.4706 444.208 15.7957 444.41 15.0508C444.612 14.3058 444.605 13.5196 444.389 12.7786C443.025 12.2522 441.541 12.117 440.104 12.3883C438.667 12.6596 437.335 13.3266 436.257 14.3141C435.407 15.1739 434.674 16.1423 434.078 17.1942C432.193 20.2702 430.525 23.9444 431.618 27.3828C431.707 27.7578 431.87 28.1112 432.098 28.4223C432.325 28.7334 432.612 28.996 432.943 29.1946C433.432 29.3912 433.96 29.4739 434.487 29.4365C436.564 29.4338 438.639 29.306 440.7 29.054C441.966 28.8992 443.437 28.5417 443.926 27.3637C444.569 25.8153 443.013 24.063 443.466 22.4489C443.765 21.7271 444.217 21.0792 444.792 20.5502C445.077 20.2839 445.296 19.9548 445.432 19.589C445.568 19.2232 445.617 18.8308 445.574 18.4429C445.391 17.6856 444.231 17.2559 443.814 17.9139" fill="white" fill-opacity="0.2"/>
<path d="M454.014 3.03782C452.169 2.61416 450.267 2.49474 448.384 2.68424C447.967 2.67184 447.554 2.76565 447.184 2.95689C446.825 3.22149 446.565 3.59829 446.444 4.02757C446.047 5.30447 446.144 6.68437 446.718 7.8924C447.292 9.10044 448.3 10.048 449.541 10.5462C450.218 10.7017 450.866 10.9621 451.462 11.3179C453.054 12.5535 452.039 15.0791 452.341 17.0721C452.679 19.31 454.845 21.1885 454.448 23.4167C454.135 25.1722 452.26 26.5623 452.562 28.3197C452.878 30.1604 455.214 30.7135 457.076 30.8609C458.155 31.0498 459.265 30.9226 460.274 30.4944C461.284 29.8033 462.003 28.7624 462.291 27.5725C463.053 25.3037 463.374 22.9098 463.235 20.5205C463.227 19.4338 462.954 18.3654 462.44 17.4079C461.879 16.6494 461.257 15.9377 460.581 15.2801C457.014 11.1309 460.77 4.94179 454.014 3.03782Z" fill="white" fill-opacity="0.2"/>
<path opacity="0.8" d="M923.076 328.073C923.076 328.073 649.874 171.251 532.257 200.964C532.257 200.964 282.992 227.789 254.104 286.804C254.104 286.804 174.867 39.1896 145.979 30.9358" stroke="white" stroke-opacity="0.3" stroke-width="2" stroke-miterlimit="10"/>
<path opacity="0.8" d="M254.104 286.804C299.912 164.648 712.603 29.2849 712.603 29.2849C654.001 44.1418 532.257 200.964 532.257 200.964C532.257 200.964 274.738 13.6026 145.979 30.9357C145.979 30.9357 713.016 49.5067 923.076 328.073" stroke="white" stroke-opacity="0.3" stroke-width="2" stroke-miterlimit="10"/>
<path d="M145.979 42.9039C152.589 42.9039 157.947 37.5456 157.947 30.9358C157.947 24.3261 152.589 18.9678 145.979 18.9678C139.369 18.9678 134.011 24.3261 134.011 30.9358C134.011 37.5456 139.369 42.9039 145.979 42.9039Z" fill="white" fill-opacity="0.3"/>
<path d="M254.104 298.772C260.714 298.772 266.072 293.414 266.072 286.804C266.072 280.194 260.714 274.836 254.104 274.836C247.494 274.836 242.136 280.194 242.136 286.804C242.136 293.414 247.494 298.772 254.104 298.772Z" fill="white" fill-opacity="0.3"/>
<path d="M712.604 41.253C719.214 41.253 724.572 35.8947 724.572 29.2849C724.572 22.6752 719.214 17.3169 712.604 17.3169C705.994 17.3169 700.636 22.6752 700.636 29.2849C700.636 35.8947 705.994 41.253 712.604 41.253Z" fill="white" fill-opacity="0.3"/>
<path d="M923.076 340.041C929.686 340.041 935.044 334.683 935.044 328.073C935.044 321.463 929.686 316.105 923.076 316.105C916.466 316.105 911.108 321.463 911.108 328.073C911.108 334.683 916.466 340.041 923.076 340.041Z" fill="white" fill-opacity="0.3"/>
<path d="M532.258 212.933C538.867 212.933 544.226 207.574 544.226 200.965C544.226 194.355 538.867 188.997 532.258 188.997C525.648 188.997 520.29 194.355 520.29 200.965C520.29 207.574 525.648 212.933 532.258 212.933Z" fill="white" fill-opacity="0.3"/>
</svg>
