<svg width="77" height="80" viewBox="0 0 77 80" fill="none" xmlns="http://www.w3.org/2000/svg">
<g opacity="0.9" clip-path="url(#clip0_122_3774)">
<path d="M23.9733 29.5713H49.5399C49.7208 29.5713 49.8668 29.4253 49.8668 29.2444C49.8668 29.0636 49.7208 28.9176 49.5399 28.9176H49.0132C48.9339 24.2942 45.7955 20.3499 41.3689 18.7062V18.2239C41.3689 17.2751 40.6391 16.4849 39.7125 16.3961C39.722 16.3612 39.7252 16.3231 39.7252 16.2818V15.6345C39.7252 15.3553 39.4967 15.1236 39.2143 15.1236H39.173V11.7092C39.4967 11.6997 39.7601 11.4332 39.7601 11.1095V10.9889H39.8553C40.1187 10.9889 40.3376 10.7731 40.3376 10.5066C40.3376 10.24 40.1187 10.0243 39.8553 10.0243H39.7601V9.90367C39.7601 9.57049 39.4872 9.30076 39.1572 9.30076H38.4559V8.68199C38.4559 8.28851 38.1893 7.95215 37.8244 7.84743V6.06408C37.8244 5.69599 37.5579 5.39136 37.2088 5.32789C37.1834 5.07721 37.158 4.81383 37.2818 4.66152C37.5991 4.28073 37.3675 4.31881 37.6086 3.92216C37.6213 3.90312 37.5547 2.95115 37.5642 2.78615C37.5833 2.31016 37.4563 2.29112 37.4024 1.64696C37.3929 1.53273 37.3453 1.15511 37.3262 1.05357C37.2755 0.736248 36.7773 1.11703 37.0406 0.634705C37.1295 0.47287 37.1263 -0.139561 36.4599 0.0317931C36.4155 0.158722 36.3933 -0.028498 36.3108 0.374501C36.2124 0.863176 36.6599 0.780673 36.0887 1.45657C35.9522 1.6184 36.187 2.12294 36.0601 2.56719C35.9681 2.88769 35.9617 3.90947 36.0379 4.27756C36.1141 4.30294 36.3108 4.57584 36.3235 4.65517C36.3552 4.8646 36.314 5.09625 36.3108 5.32789C35.9586 5.38819 35.6888 5.69599 35.6888 6.06408V7.84743C35.3271 7.95215 35.0605 8.28533 35.0605 8.68199V9.30076H34.3593C34.0293 9.30076 33.7564 9.57049 33.7564 9.90367V10.0243H33.6612C33.3978 10.0243 33.1788 10.24 33.1788 10.5066C33.1788 10.7731 33.3978 10.9889 33.6612 10.9889H33.7564V11.1095C33.7564 11.4332 34.0166 11.7029 34.3402 11.7092V15.1236H34.299C34.0197 15.1236 33.7913 15.3521 33.7913 15.6345V16.2818C33.7913 16.3199 33.7944 16.358 33.804 16.3961C32.8774 16.4881 32.1475 17.2751 32.1475 18.2239V18.7062C27.7209 20.3531 24.5826 24.2942 24.5001 28.9176H23.9733C23.7925 28.9176 23.6465 29.0636 23.6465 29.2444C23.6465 29.4253 23.7925 29.5713 23.9733 29.5713ZM41.0072 18.7062C45.0879 20.3531 47.9851 24.2942 48.058 28.9176H46.7888C46.3382 24.253 43.8472 20.3721 40.4582 18.7062H41.0072ZM40.052 18.7062C43.0666 20.3721 45.2878 24.253 45.6877 28.9176H43.6949C43.3839 24.253 41.6608 20.3721 39.319 18.7062H40.0552H40.052ZM38.9922 18.7062C40.9976 20.3721 42.3716 24.253 42.616 28.9176H40.7025C40.5248 24.253 39.5443 20.3721 38.2116 18.7062H38.989H38.9922ZM37.8403 11.7124H38.3353V15.1268H37.8403V11.7124ZM37.9418 18.7062C38.9287 20.3721 39.3983 24.253 39.4808 28.9176H37.3707C37.2881 24.0499 37.139 20.3182 36.9581 18.7062H37.945H37.9418ZM36.5075 11.7124H37.0026V15.1268H36.5075V11.7124ZM36.5551 18.7062C36.3743 20.3182 36.2251 24.0531 36.1426 28.9176H34.0324C34.1118 24.253 34.5846 20.3721 35.5714 18.7062H36.5583H36.5551ZM35.1748 11.7124H35.673V15.1268H35.1748V11.7124ZM34.5211 18.7062H35.2985C33.9658 20.3721 32.9853 24.253 32.8076 28.9176H30.8941C31.1416 24.253 32.5125 20.3721 34.5179 18.7062H34.5211ZM34.1943 18.7062C31.8524 20.3721 30.1262 24.253 29.8184 28.9176H27.8256C28.2254 24.253 30.4435 20.3721 33.4612 18.7062H34.1974H34.1943ZM32.5029 18.7062H33.0519C29.6629 20.3721 27.1688 24.253 26.7213 28.9176H25.452C25.525 24.2942 28.419 20.3499 32.5029 18.7062Z" fill="#EC268F"/>
<path d="M23.3774 30.831H50.1371C50.3624 30.831 50.5496 30.647 50.5496 30.4185C50.5496 30.19 50.3656 30.006 50.1371 30.006H23.3774C23.1521 30.006 22.9648 30.19 22.9648 30.4185C22.9648 30.647 23.1521 30.831 23.3774 30.831Z" fill="#EC268F"/>
<path d="M21.5751 37.5297C21.2451 37.5297 20.9785 37.7994 20.9785 38.1294C20.9785 38.4594 21.2482 38.726 21.5751 38.726H51.9364C52.2664 38.726 52.5362 38.4563 52.5362 38.1294C52.5362 37.8026 52.2664 37.5297 51.9364 37.5297H51.581V33.084H51.6477C52.1363 33.084 52.5362 32.6842 52.5362 32.1987C52.5362 31.7132 52.1363 31.3102 51.6477 31.3102H21.8638C21.3752 31.3102 20.9785 31.71 20.9785 32.1987C20.9785 32.6874 21.3783 33.084 21.8638 33.084H21.9305V37.5297H21.5751ZM48.9822 33.084H50.5466V37.5297H48.9822V33.084ZM46.3801 33.084H47.9445V37.5297H46.3801V33.084ZM43.7781 33.084H45.3425V37.5297H43.7781V33.084ZM41.176 33.084H42.7404V37.5297H41.176V33.084ZM38.574 33.084H40.1384V37.5297H38.574V33.084ZM35.9751 33.084H37.5395V37.5297H35.9751V33.084ZM33.3731 33.084H34.9375V37.5297H33.3731V33.084ZM30.7711 33.084H32.3355V37.5297H30.7711V33.084ZM28.1722 33.084H29.7366V37.5297H28.1722V33.084ZM25.5702 33.084H27.1346V37.5297H25.5702V33.084ZM22.9681 33.084H24.5325V37.5297H22.9681V33.084Z" fill="#EC268F"/>
<path d="M19.6229 41.0329H53.8905C54.3791 41.0329 54.7758 40.633 54.7758 40.1475C54.7758 39.662 54.376 39.2622 53.8905 39.2622H19.6229C19.1342 39.2622 18.7344 39.662 18.7344 40.1475C18.7344 40.633 19.1342 41.0329 19.6229 41.0329Z" fill="#EC268F"/>
<path d="M26.2587 76.4048H47.2559C47.4304 76.4048 47.5732 76.262 47.5732 76.0843C47.5732 75.9066 47.4304 75.767 47.2559 75.767H26.2587C26.0842 75.767 25.9414 75.9098 25.9414 76.0843C25.9414 76.2588 26.0842 76.4048 26.2587 76.4048Z" fill="#EC268F"/>
<path d="M27.9208 72.124H45.5925C45.767 72.124 45.9098 71.9812 45.9098 71.8067C45.9098 71.6322 45.767 71.4862 45.5925 71.4862H27.9208C27.7463 71.4862 27.6035 71.629 27.6035 71.8067C27.6035 71.9844 27.7463 72.124 27.9208 72.124Z" fill="#EC268F"/>
<path d="M27.9208 74.2311H45.5925C45.767 74.2311 45.9098 74.0883 45.9098 73.9138C45.9098 73.7392 45.767 73.5933 45.5925 73.5933H27.9208C27.7463 73.5933 27.6035 73.7361 27.6035 73.9138C27.6035 74.0915 27.7463 74.2311 27.9208 74.2311Z" fill="#EC268F"/>
<path d="M10.1105 71.0738V75.7733C10.4405 75.9669 10.7325 76.2144 10.9736 76.5095V71.077L62.5416 71.0897V76.8586H61.5833V73.5965C61.5833 73.092 61.1708 72.6794 60.6662 72.6794C60.1617 72.6794 59.7492 73.092 59.7492 73.5965V76.8586H58.1975V73.5933C58.1975 73.0888 57.7849 72.6763 57.2772 72.6763C56.7695 72.6763 56.3602 73.0888 56.3602 73.5933V76.8586H54.8085V73.5933C54.8085 73.0888 54.3959 72.6763 53.8882 72.6763C53.3805 72.6763 52.9712 73.0888 52.9712 73.5933V76.8586H51.4195V73.5965C51.4195 73.092 51.0069 72.6794 50.5024 72.6794C49.9979 72.6794 49.5853 73.092 49.5853 73.5965V76.8586H23.9489V73.5965C23.9489 73.092 23.5364 72.6794 23.0319 72.6794C22.5273 72.6794 22.1148 73.092 22.1148 73.5965V76.8586H20.5631V73.5933C20.5631 73.0888 20.1506 72.6763 19.6429 72.6763C19.1351 72.6763 18.7258 73.0888 18.7258 73.5933V76.8586H17.1741V73.5933C17.1741 73.0888 16.7616 72.6763 16.257 72.6763C15.7525 72.6763 15.3368 73.0888 15.3368 73.5933V76.8586H13.7851V73.5965C13.7851 73.092 13.3726 72.6794 12.868 72.6794C12.3635 72.6794 11.9478 73.092 11.9478 73.5965V76.8586H11.2338C11.3576 77.0585 11.4591 77.2711 11.5385 77.4964H76.4815V76.8586H63.4206V71.0897H76.4815V70.3598H63.4206V59.9707H62.2084C62.4337 59.9707 62.6177 60.1547 62.6177 60.38C62.6177 60.6053 62.4337 60.7894 62.2084 60.7894H62.1291L62.2719 69.2238H62.5575V70.3598H60.8788V69.2238H61.1612L61.304 60.7894H61.2247C60.9994 60.7894 60.8154 60.6053 60.8154 60.38C60.8154 60.1547 60.9994 59.9707 61.2247 59.9707H59.0955C59.2129 60.0437 59.2922 60.1738 59.2922 60.3229C59.2922 60.5482 59.1082 60.7354 58.8829 60.7354H58.8035C58.8511 63.5628 58.8987 66.3901 58.9463 69.2175H59.2287V70.3598H57.5501V69.2175H57.8325C57.8801 66.3901 57.9277 63.5628 57.9753 60.7354H57.896C57.6707 60.7354 57.4867 60.5514 57.4867 60.3229C57.4867 60.1738 57.566 60.0437 57.6834 59.9707H55.7668C55.8842 60.0437 55.9635 60.1738 55.9635 60.3229C55.9635 60.5482 55.7795 60.7354 55.5542 60.7354H55.4748C55.5224 63.5628 55.57 66.3901 55.6176 69.2175H55.9V70.3598H54.2214V69.2175H54.5038C54.5514 66.3901 54.599 63.5628 54.6466 60.7354H54.5673C54.342 60.7354 54.1579 60.5514 54.1579 60.3229C54.1579 60.1738 54.2373 60.0437 54.3547 59.9707H52.4381C52.5555 60.0437 52.6348 60.1738 52.6348 60.3229C52.6348 60.5482 52.4508 60.7354 52.2255 60.7354H52.1461C52.1937 63.5628 52.2413 66.3901 52.2889 69.2175H52.5745V70.3566H50.8959V69.2175H51.1815C51.2291 66.3901 51.2767 63.5628 51.3243 60.7354H51.2449C51.0196 60.7354 50.8356 60.5514 50.8356 60.3229C50.8356 60.1738 50.9149 60.0437 51.0323 59.9707H49.1157C49.2331 60.0437 49.3124 60.1738 49.3124 60.3229C49.3124 60.5482 49.1284 60.7354 48.9031 60.7354H48.8238C48.8714 63.5628 48.919 66.3901 48.9666 69.2175H49.2522V70.3566H47.5735V69.2175H47.8591C47.9067 66.3901 47.9543 63.5628 48.0019 60.7354H47.9226C47.6973 60.7354 47.5132 60.5514 47.5132 60.3229C47.5132 60.1738 47.5926 60.0437 47.71 59.9707H45.7933C45.9108 60.0437 45.9901 60.1738 45.9901 60.3229C45.9901 60.5482 45.806 60.7354 45.5807 60.7354H45.5014C45.549 63.5628 45.5966 66.3901 45.6442 69.2175H45.9266V70.3566H44.248V69.2175H44.5304C44.578 66.3901 44.6256 63.5628 44.6732 60.7354H44.5939C44.3686 60.7354 44.1845 60.5514 44.1845 60.3229C44.1845 60.1738 44.2639 60.0437 44.3813 59.9707H42.4646C42.5821 60.0437 42.6614 60.1738 42.6614 60.3229C42.6614 60.5482 42.4773 60.7354 42.252 60.7354H42.1727C42.2203 63.5628 42.2679 66.3901 42.3155 69.2175H42.5979V70.3566H40.9193V69.2175H41.2049C41.2525 66.3901 41.3001 63.5628 41.3477 60.7354H41.2683C41.043 60.7354 40.859 60.5514 40.859 60.3229C40.859 60.1738 40.9383 60.0437 41.0557 59.9707H39.1391C39.2565 60.0437 39.3358 60.1738 39.3358 60.3229C39.3358 60.5482 39.1518 60.7354 38.9265 60.7354H38.8472C38.8948 63.5628 38.9424 66.3901 38.99 69.2175H39.2756V70.3535H37.5969V69.2175H37.8825C37.9301 66.3901 37.9777 63.5628 38.0253 60.7354H37.946C37.7207 60.7354 37.5366 60.5514 37.5366 60.3229C37.5366 60.1738 37.616 60.0437 37.7334 59.9707H35.8168C35.9342 60.0437 36.0135 60.1738 36.0135 60.3229C36.0135 60.5482 35.8294 60.7354 35.6041 60.7354H35.5248C35.5724 63.5628 35.62 66.3901 35.6676 69.2175H35.9532V70.3535H34.2746V69.2175H34.557C34.6046 66.3901 34.6522 63.5628 34.6998 60.7354H34.6204C34.3951 60.7354 34.2111 60.5514 34.2111 60.3229C34.2111 60.1738 34.2904 60.0437 34.4078 59.9707H32.4912C32.6086 60.0437 32.688 60.1738 32.688 60.3229C32.688 60.5482 32.5039 60.7354 32.2786 60.7354H32.1993C32.2469 63.5628 32.2945 66.3901 32.3421 69.2175H32.6277V70.3535H30.949V69.2175H31.2314C31.279 66.3901 31.3266 63.5628 31.3742 60.7354H31.2949C31.0728 60.7354 30.8856 60.5514 30.8856 60.3229C30.8856 60.1738 30.9649 60.0437 31.0823 59.9707H29.1657C29.2831 60.0437 29.3624 60.1738 29.3624 60.3229C29.3624 60.5482 29.1784 60.7354 28.9531 60.7354H28.8738C28.9213 63.5628 28.9689 66.3901 29.0165 69.2175H29.3021V70.3535H27.6235V69.2175H27.9091C27.9567 66.3901 28.0043 63.5628 28.0519 60.7354H27.9726C27.7473 60.7354 27.5632 60.5514 27.5632 60.3229C27.5632 60.1738 27.6425 60.0437 27.76 59.9707H25.8433C25.9607 60.0437 26.0401 60.1738 26.0401 60.3229C26.0401 60.5482 25.856 60.7354 25.6307 60.7354H25.5514C25.599 63.5628 25.6466 66.3901 25.6942 69.2175H25.9798V70.3535H24.298V69.2175H24.5836C24.6312 66.3901 24.6788 63.5628 24.7264 60.7354H24.647C24.4217 60.7354 24.2377 60.5514 24.2377 60.3229C24.2377 60.1738 24.317 60.0437 24.4344 59.9707H22.5178C22.6352 60.0437 22.7145 60.1738 22.7145 60.3229C22.7145 60.5482 22.5305 60.7354 22.3084 60.7354H22.2259C22.2735 63.5628 22.3211 66.3901 22.3687 69.2175H22.6542V70.3535H20.9756V69.2175H21.2612C21.3088 66.3901 21.3564 63.5628 21.404 60.7354H21.3247C21.0994 60.7354 20.9153 60.5514 20.9153 60.3229C20.9153 60.1738 20.9946 60.0437 21.1121 59.9707H19.1954C19.3128 60.0437 19.3922 60.1738 19.3922 60.3229C19.3922 60.5482 19.2081 60.7354 18.9828 60.7354H18.9035C18.9511 63.5628 18.9987 66.3901 19.0463 69.2175H19.3287V70.3503H17.6501V69.2175H17.9325C17.9801 66.3901 18.0277 63.5628 18.0753 60.7354H17.996C17.7707 60.7354 17.5866 60.5514 17.5866 60.3229C17.5866 60.1738 17.6659 60.0437 17.7834 59.9707H15.8667C15.9841 60.0437 16.0635 60.1738 16.0635 60.3229C16.0635 60.5482 15.8794 60.7354 15.6541 60.7354H15.5748C15.6224 63.5628 15.67 66.3901 15.7176 69.2175H16.0032V70.3503H14.3245V69.2175H14.6101C14.6577 66.3901 14.7053 63.5628 14.7529 60.7354H14.6736C14.4483 60.7354 14.2643 60.5514 14.2643 60.3229C14.2643 60.1738 14.3436 60.0437 14.461 59.9707H12.3318C12.5571 59.9707 12.7411 60.1547 12.7411 60.38C12.7411 60.6053 12.5571 60.7894 12.3318 60.7894H12.2524L12.3952 69.2238H12.6808V70.3503H10.999V69.2238H11.2846L11.4274 60.7894H11.3481C11.1259 60.7894 10.9387 60.6053 10.9387 60.38C10.9387 60.1547 11.1228 59.9707 11.3481 59.9707H10.1391V70.3471H8.41602V71.0801H10.1391L10.1105 71.0738Z" fill="#EC268F"/>
<path d="M27.09 75.3163H46.4213C46.5958 75.3163 46.7386 75.1735 46.7386 74.999C46.7386 74.8244 46.5958 74.6816 46.4213 74.6816H27.09C26.9155 74.6816 26.7695 74.8244 26.7695 74.999C26.7695 75.1735 26.9123 75.3163 27.09 75.3163Z" fill="#EC268F"/>
<path d="M0 80H76.465V78H0.394976C0.409881 78.1237 0.417334 78.2474 0.417334 78.371C0.417334 78.9576 0.264559 79.5088 0 79.9965V80Z" fill="#EC268F"/>
<path d="M76.465 57.6415V54.9062H56.0803V53.1673H56.3564C56.6197 53.1673 56.8387 52.9515 56.8387 52.6882C56.8387 52.4248 56.6229 52.2058 56.3564 52.2058H53.7924V51.4157H54.0304C54.3667 51.4157 54.6396 51.1428 54.6396 50.8064C54.6396 50.4701 54.3667 50.1972 54.0304 50.1972H53.859V42.6989H54.0304C54.3667 42.6989 54.6396 42.426 54.6396 42.0896C54.6396 41.7532 54.3667 41.4803 54.0304 41.4803H19.4836C19.1504 41.4803 18.8743 41.7532 18.8743 42.0896C18.8743 42.426 19.1472 42.6989 19.4836 42.6989H19.6549V50.1972H19.4836C19.1504 50.1972 18.8743 50.4701 18.8743 50.8064C18.8743 51.1428 19.1472 51.4157 19.4836 51.4157H19.7215V52.2058H17.1576C16.8942 52.2058 16.6784 52.4216 16.6784 52.6882C16.6784 52.9547 16.8942 53.1673 17.1576 53.1673H17.4368V54.9062H0C0.0158661 55.8931 0.0761572 56.8292 0.228472 57.6415H10.5002V58.4507H5.44524C5.9244 58.6316 6.3147 58.9743 6.56539 59.4122H76.4682V58.4507H63.0169V57.6415H76.4682H76.465ZM51.7742 42.6989H53.0054V50.1972H51.7742V42.6989ZM49.6894 42.6989H50.9206V50.1972H49.6894V42.6989ZM47.6046 42.6989H48.8358V50.1972H47.6046V42.6989ZM45.5198 42.6989H46.751V50.1972H45.5198V42.6989ZM43.435 42.6989H44.6662V50.1972H43.435V42.6989ZM41.3502 42.6989H42.5814V50.1972H41.3502V42.6989ZM39.2686 42.6989H40.4966V50.1972H39.2686V42.6989ZM37.1838 42.6989H38.415V50.1972H37.1838V42.6989ZM35.099 42.6989H36.3302V50.1972H35.099V42.6989ZM33.0142 42.6989H34.2422V50.1972H33.0142V42.6989ZM30.9294 42.6989H32.1606V50.1972H30.9294V42.6989ZM28.8477 42.6989H30.0789V50.1972H28.8477V42.6989ZM26.7629 42.6989H27.991V50.1972H26.7629V42.6989ZM24.6781 42.6989H25.9093V50.1972H24.6781V42.6989ZM24.786 56.588L36.7554 51.8123L48.7279 56.588C48.7851 56.6103 48.8231 56.6547 48.8358 56.715C48.8485 56.7753 48.8358 56.8324 48.7914 56.8736L48.3218 57.3686L36.7554 52.7643L25.189 57.3686L24.7194 56.8736C24.6781 56.8292 24.6623 56.7721 24.6749 56.715C24.6876 56.6547 24.7257 56.6103 24.7828 56.588H24.786ZM22.5933 42.6989H23.8245V50.1972H22.5933V42.6989ZM20.5085 42.6989H21.7397V50.1972H20.5085V42.6989ZM25.8808 58.4507H11.5664V57.6415H25.8808V58.4507ZM46.5638 58.4507H26.9501V57.6415H46.5638V58.4507ZM61.9444 58.4507H47.63V57.6415H61.9444V58.4507Z" fill="#EC268F"/>
<path d="M27.9208 73.1776H45.5925C45.767 73.1776 45.9098 73.0348 45.9098 72.8603C45.9098 72.6858 45.767 72.5398 45.5925 72.5398H27.9208C27.7463 72.5398 27.6035 72.6826 27.6035 72.8603C27.6035 73.038 27.7463 73.1776 27.9208 73.1776Z" fill="#EC268F"/>
</g>
<defs>
<clipPath id="clip0_122_3774">
<rect width="76.465" height="80" fill="white"/>
</clipPath>
</defs>
</svg>
