<svg width="47" height="47" viewBox="0 0 47 47" fill="none" xmlns="http://www.w3.org/2000/svg">
<path d="M23.9474 46.1053C36.679 46.1053 47 35.7842 47 23.0526C47 10.321 36.679 0 23.9474 0C11.2158 0 0.894775 10.321 0.894775 23.0526C0.894775 35.7842 11.2158 46.1053 23.9474 46.1053Z" fill="#00AFF0"/>
<path d="M38.4937 15.1968C37.4765 15.6478 36.3822 15.9532 35.2353 16.0894C36.4067 15.387 37.3057 14.2761 37.7301 12.9513C36.6336 13.6019 35.419 14.0737 34.1274 14.328C33.0922 13.2258 31.6182 12.5364 29.9851 12.5364C26.8528 12.5364 24.312 15.0772 24.312 18.2095C24.312 18.654 24.3624 19.0869 24.4597 19.5026C19.7447 19.2663 15.5649 17.0079 12.7662 13.5745C12.2778 14.4123 11.9976 15.387 11.9976 16.4272C11.9976 18.3946 12.9996 20.1322 14.5211 21.1494C13.5918 21.1199 12.7165 20.8649 11.9522 20.4391C11.9514 20.4629 11.9514 20.4874 11.9514 20.5112C11.9514 23.2602 13.908 25.5525 16.5029 26.0733C16.0274 26.203 15.5253 26.2729 15.0081 26.2729C14.6421 26.2729 14.287 26.2376 13.9405 26.1713C14.6623 28.4247 16.7572 30.0643 19.2404 30.1104C17.2982 31.6326 14.8525 32.5388 12.1942 32.5388C11.7368 32.5388 11.2844 32.5122 10.842 32.4596C13.3512 34.0697 16.3343 35.0091 19.5372 35.0091C29.9721 35.0091 35.6791 26.3651 35.6791 18.8672C35.6791 18.6215 35.6733 18.3766 35.6625 18.1338C36.7712 17.3335 37.7329 16.3343 38.4937 15.1968Z" fill="white"/>
</svg>
